<svg width="18" height="18" viewBox="0 0 18 18" fill="none" xmlns="http://www.w3.org/2000/svg">
<path d="M8.99998 1.62165C11.4031 1.62165 11.6877 1.6308 12.6367 1.6741C13.5142 1.71415 13.9908 1.86077 14.3079 1.98398C14.728 2.14725 15.0278 2.34231 15.3428 2.65723C15.6577 2.97215 15.8528 3.272 16.016 3.69206C16.1392 4.00923 16.2859 4.48577 16.3259 5.36323C16.3692 6.31228 16.3783 6.5969 16.3783 9.00002C16.3783 11.4031 16.3692 11.6878 16.3259 12.6368C16.2859 13.5143 16.1392 13.9908 16.016 14.308C15.8528 14.728 15.6577 15.0279 15.3428 15.3428C15.0278 15.6577 14.728 15.8528 14.3079 16.016C13.9908 16.1393 13.5142 16.2859 12.6367 16.3259C11.6879 16.3692 11.4032 16.3784 8.99998 16.3784C6.59672 16.3784 6.3121 16.3692 5.36323 16.3259C4.48574 16.2859 4.00919 16.1393 3.69206 16.016C3.27196 15.8528 2.97212 15.6577 2.6572 15.3428C2.34227 15.0279 2.14721 14.728 1.98398 14.308C1.86073 13.9908 1.71411 13.5143 1.67406 12.6368C1.63076 11.6878 1.62162 11.4031 1.62162 9.00002C1.62162 6.5969 1.63076 6.31228 1.67406 5.36326C1.71411 4.48577 1.86073 4.00923 1.98398 3.69206C2.14721 3.272 2.34227 2.97215 2.6572 2.65723C2.97212 2.34231 3.27196 2.14725 3.69206 1.98398C4.00919 1.86077 4.48574 1.71415 5.36319 1.6741C6.31224 1.6308 6.59687 1.62165 8.99998 1.62165ZM8.99998 0C6.55571 0 6.24926 0.0103604 5.28931 0.0541599C4.33133 0.097888 3.67712 0.250007 3.10462 0.472506C2.51279 0.702507 2.01088 1.01025 1.51055 1.51058C1.01021 2.01092 0.702472 2.51283 0.47247 3.10466C0.249972 3.67716 0.0978523 4.33137 0.0541242 5.28935C0.0103247 6.24926 0 6.55575 0 9.00002C0 11.4443 0.0103247 11.7508 0.0541242 12.7107C0.0978523 13.6687 0.249972 14.3229 0.47247 14.8954C0.702472 15.4872 1.01021 15.9891 1.51055 16.4895C2.01088 16.9898 2.51279 17.2975 3.10462 17.5275C3.67712 17.75 4.33133 17.9021 5.28931 17.9459C6.24926 17.9897 6.55571 18 8.99998 18C11.4443 18 11.7507 17.9897 12.7107 17.9459C13.6686 17.9021 14.3228 17.75 14.8953 17.5275C15.4872 17.2975 15.9891 16.9898 16.4894 16.4895C16.9898 15.9891 17.2975 15.4872 17.5275 14.8954C17.75 14.3229 17.9021 13.6687 17.9458 12.7107C17.9896 11.7508 18 11.4443 18 9.00002C18 6.55575 17.9896 6.24926 17.9458 5.28935C17.9021 4.33137 17.75 3.67716 17.5275 3.10466C17.2975 2.51283 16.9898 2.01092 16.4894 1.51058C15.9891 1.01025 15.4872 0.702507 14.8953 0.472506C14.3228 0.250007 13.6686 0.097888 12.7107 0.0541599C11.7507 0.0103604 11.4443 0 8.99998 0ZM8.99998 4.37838C6.44753 4.37838 4.37835 6.44757 4.37835 9.00002C4.37835 11.5525 6.44753 13.6217 8.99998 13.6217C11.5524 13.6217 13.6216 11.5525 13.6216 9.00002C13.6216 6.44757 11.5524 4.37838 8.99998 4.37838ZM8.99998 12C7.34314 12 5.99996 10.6569 5.99996 9.00002C5.99996 7.34317 7.34314 6 8.99998 6C10.6568 6 12 7.34317 12 9.00002C12 10.6569 10.6568 12 8.99998 12ZM14.8842 4.19579C14.8842 4.79226 14.4007 5.27581 13.8042 5.27581C13.2077 5.27581 12.7242 4.79226 12.7242 4.19579C12.7242 3.59931 13.2077 3.1158 13.8042 3.1158C14.4007 3.1158 14.8842 3.59931 14.8842 4.19579Z" fill="#999999"/>
</svg>
