<svg width="16" height="18" viewBox="0 0 16 18" fill="none" xmlns="http://www.w3.org/2000/svg">
<path d="M8.21477 0.0151883C9.19639 0 10.1724 0.00900048 11.1472 0C11.2063 1.14812 11.6192 2.31762 12.4596 3.12935C13.2984 3.96134 14.4847 4.34217 15.639 4.47099V7.49121C14.5573 7.45577 13.4705 7.23076 12.4889 6.76499C12.0614 6.57148 11.6631 6.32227 11.2732 6.06745C11.2682 8.25907 11.2822 10.4479 11.2592 12.6305C11.2007 13.679 10.8547 14.7225 10.2449 15.5866C9.26389 17.025 7.56111 17.9627 5.81221 17.992C4.73946 18.0533 3.66784 17.7608 2.75373 17.2219C1.23884 16.3286 0.172842 14.6933 0.0175842 12.9382C-0.00041677 12.563 -0.00660462 12.1883 0.00858369 11.8221C0.143591 10.395 0.849566 9.02973 1.94537 8.10099C3.18744 7.01925 4.92735 6.50397 6.55643 6.80886C6.57162 7.91986 6.52718 9.02973 6.52718 10.1407C5.78295 9.89997 4.91328 9.96747 4.263 10.4192C3.78822 10.7269 3.42764 11.1983 3.23976 11.7316C3.0845 12.1118 3.12894 12.5343 3.13794 12.9382C3.31626 14.169 4.49982 15.2035 5.76327 15.0916C6.60087 15.0826 7.4036 14.5965 7.84013 13.8849C7.98132 13.6357 8.13939 13.3809 8.14783 13.0878C8.22152 11.7462 8.19227 10.4102 8.20127 9.06855C8.20746 6.04495 8.19227 3.02979 8.21533 0.0157508L8.21477 0.0151883Z" fill="#999999"/>
</svg>
