<svg width="18" height="15" viewBox="0 0 18 15" fill="none" xmlns="http://www.w3.org/2000/svg">
<path d="M5.66064 14.9109C12.4531 14.9109 16.1683 9.28348 16.1683 4.40337C16.1683 4.24353 16.1683 4.08441 16.1575 3.92602C16.8803 3.40324 17.5042 2.75594 18 2.01444C17.326 2.31309 16.611 2.50895 15.8789 2.59547C16.6498 2.13394 17.2268 1.40804 17.5025 0.55285C16.7776 0.983013 15.9845 1.28617 15.1574 1.44924C14.6006 0.85718 13.8642 0.465132 13.0621 0.333766C12.2601 0.202399 11.4371 0.339038 10.7205 0.722538C10.0039 1.10604 9.43367 1.71502 9.09806 2.45524C8.76245 3.19547 8.68016 4.02566 8.86392 4.81737C7.39566 4.74376 5.95929 4.36221 4.64806 3.69748C3.33683 3.03276 2.18004 2.09971 1.2528 0.958926C0.780546 1.77191 0.635904 2.73433 0.848325 3.65021C1.06075 4.5661 1.61426 5.3666 2.39616 5.88871C1.80845 5.8713 1.23356 5.71276 0.72 5.42648C0.72 5.4416 0.72 5.45744 0.72 5.47328C0.720233 6.32591 1.01539 7.15221 1.5554 7.81203C2.09542 8.47185 2.84705 8.92457 3.6828 9.0934C3.13911 9.24168 2.56866 9.26335 2.01528 9.15676C2.25127 9.89055 2.7107 10.5322 3.32933 10.9921C3.94796 11.4519 4.69484 11.7069 5.46552 11.7214C4.15781 12.7491 2.54236 13.307 0.87912 13.3054C0.58529 13.3048 0.291747 13.287 0 13.2521C1.68886 14.3359 3.65394 14.9107 5.66064 14.9081" fill="#999999"/>
</svg>
