<svg width="18" height="18" fill="none" xmlns="http://www.w3.org/2000/svg"><path d="M9 1.622c2.403 0 2.688.009 3.637.052.877.04 1.354.187 1.67.31.421.163.72.358 1.036.673.315.315.51.615.673 1.035.123.317.27.794.31 1.671.043.95.052 1.234.052 3.637s-.009 2.688-.052 3.637c-.04.877-.187 1.354-.31 1.671-.163.42-.358.72-.673 1.035-.315.315-.615.51-1.035.673-.317.123-.794.27-1.671.31-.95.043-1.234.052-3.637.052s-2.688-.009-3.637-.052c-.877-.04-1.354-.187-1.67-.31a2.788 2.788 0 0 1-1.036-.673 2.788 2.788 0 0 1-.673-1.035c-.123-.317-.27-.794-.31-1.671-.043-.95-.052-1.234-.052-3.637s.009-2.688.052-3.637c.04-.877.187-1.354.31-1.67a2.79 2.79 0 0 1 .673-1.036c.315-.315.615-.51 1.035-.673.317-.123.794-.27 1.671-.31.95-.043 1.234-.052 3.637-.052ZM9 0C6.556 0 6.25.01 5.29.054S3.676.25 3.104.473A4.412 4.412 0 0 0 1.51 1.51c-.5.5-.809 1.002-1.039 1.594C.25 3.677.098 4.33.054 5.289.01 6.25 0 6.556 0 9s.01 2.75.054 3.71c.044.959.196 1.613.418 2.185.23.592.538 1.094 1.039 1.595.5.5 1.002.808 1.594 1.038.572.222 1.226.374 2.184.418C6.25 17.99 6.556 18 9 18s2.75-.01 3.71-.054c.959-.044 1.613-.196 2.185-.419a4.411 4.411 0 0 0 1.594-1.038c.5-.5.808-1.002 1.038-1.594.223-.572.375-1.226.419-2.184C17.99 11.75 18 11.444 18 9s-.01-2.75-.054-3.71c-.044-.959-.196-1.613-.419-2.185A4.41 4.41 0 0 0 16.49 1.51 4.41 4.41 0 0 0 14.895.473C14.323.25 13.67.098 12.711.054 11.75.01 11.444 0 9 0Zm0 4.378a4.622 4.622 0 1 0 0 9.244 4.622 4.622 0 0 0 0-9.244ZM9 12a3 3 0 1 1 0-6 3 3 0 0 1 0 6Zm5.884-7.804a1.08 1.08 0 1 1-2.16 0 1.08 1.08 0 0 1 2.16 0Z" fill="#999"/></svg>