<svg width="16" height="18" fill="none" xmlns="http://www.w3.org/2000/svg"><path d="M8.215.015C9.196 0 10.172.01 11.147 0c.06 1.148.472 2.318 1.313 3.13.838.831 2.025 1.212 3.179 1.341v3.02c-1.082-.035-2.168-.26-3.15-.726a9.137 9.137 0 0 1-1.216-.698c-.005 2.192.01 4.38-.014 6.563a5.71 5.71 0 0 1-1.014 2.957c-.981 1.438-2.684 2.376-4.433 2.405-1.073.061-2.144-.231-3.058-.77-1.515-.893-2.581-2.529-2.736-4.284-.018-.375-.025-.75-.01-1.116a5.623 5.623 0 0 1 1.937-3.721c1.242-1.082 2.982-1.597 4.611-1.292.016 1.11-.029 2.22-.029 3.332-.744-.241-1.614-.174-2.264.278a2.6 2.6 0 0 0-1.023 1.313c-.156.38-.111.802-.102 1.206.178 1.231 1.362 2.265 2.625 2.154.838-.01 1.64-.495 2.077-1.207.141-.25.3-.504.308-.797.074-1.342.044-2.678.053-4.02.006-3.023-.009-6.038.014-9.052Z" fill="#999"/></svg>