<svg width="18" height="15" fill="none" xmlns="http://www.w3.org/2000/svg"><path d="M5.66 14.91c6.793 0 10.508-5.627 10.508-10.507 0-.16 0-.319-.01-.477A7.513 7.513 0 0 0 18 2.014a7.371 7.371 0 0 1-2.121.581A3.706 3.706 0 0 0 17.503.553a7.4 7.4 0 0 1-2.346.896 3.696 3.696 0 0 0-6.293 3.368A10.485 10.485 0 0 1 1.253.96a3.696 3.696 0 0 0 1.143 4.93A3.665 3.665 0 0 1 .72 5.426v.047a3.694 3.694 0 0 0 2.963 3.62 3.687 3.687 0 0 1-1.668.064 3.698 3.698 0 0 0 3.45 2.564A7.411 7.411 0 0 1 0 13.252a10.456 10.456 0 0 0 5.66 1.656" fill="#999"/></svg>