<svg width="155" height="47" fill="none" xmlns="http://www.w3.org/2000/svg"><path d="M69.503 23.778h-6.917l-.038-2.905h6.28c1.037 0 1.943-.175 2.718-.525.774-.35 1.374-.85 1.8-1.5.437-.662.655-1.45.655-2.362 0-1-.193-1.812-.58-2.436-.376-.638-.957-1.1-1.744-1.388-.775-.3-1.762-.45-2.962-.45h-5.323v24.331h-3.618V9.252h8.941c1.4 0 2.65.144 3.75.431 1.099.275 2.03.712 2.792 1.312a5.585 5.585 0 0 1 1.762 2.25c.4.912.6 2.005.6 3.28 0 1.125-.287 2.143-.862 3.055-.575.9-1.375 1.637-2.4 2.212-1.012.575-2.199.944-3.561 1.106l-1.293.881Zm-.17 12.766h-8.172l2.043-2.944h6.13c1.15 0 2.124-.2 2.924-.6.812-.4 1.43-.962 1.856-1.686.425-.738.637-1.606.637-2.606 0-1.012-.181-1.887-.544-2.624-.362-.738-.93-1.306-1.705-1.706-.775-.4-1.775-.6-3-.6h-5.154l.037-2.905h7.048l.769 1.05c1.312.112 2.424.487 3.336 1.124a6.112 6.112 0 0 1 2.081 2.4c.487.974.731 2.049.731 3.224 0 1.7-.375 3.136-1.124 4.31-.738 1.163-1.781 2.05-3.13 2.663-1.35.6-2.938.9-4.762.9ZM86.936 7.75v28.793H83.45V7.75h3.486Zm9.335 8.51v20.283h-3.486V16.262h3.486Zm-3.749-5.38c0-.562.169-1.037.506-1.424.35-.387.863-.581 1.537-.581.663 0 1.169.194 1.519.581.362.387.543.862.543 1.425 0 .537-.18 1-.543 1.387-.35.375-.856.562-1.519.562-.674 0-1.187-.187-1.537-.562a2.042 2.042 0 0 1-.506-1.387Zm12.766 9.41v16.253H101.8V16.262h3.299l.188 4.03Zm-.713 5.343-1.612-.056c.013-1.387.194-2.668.544-3.843.35-1.187.868-2.218 1.556-3.093a6.91 6.91 0 0 1 2.568-2.024c1.024-.488 2.212-.731 3.561-.731.95 0 1.825.137 2.624.412a5.28 5.28 0 0 1 2.081 1.256c.588.575 1.044 1.312 1.369 2.212.324.9.487 1.987.487 3.261v13.516h-3.468V23.197c0-1.062-.181-1.912-.543-2.55a3.11 3.11 0 0 0-1.5-1.386c-.65-.3-1.412-.45-2.287-.45-1.025 0-1.881.181-2.568.543a4.347 4.347 0 0 0-1.65 1.5 6.753 6.753 0 0 0-.899 2.193 12.262 12.262 0 0 0-.263 2.587Zm13.14-1.912-2.324.712c.013-1.112.194-2.18.544-3.205a8.708 8.708 0 0 1 1.555-2.737 7.37 7.37 0 0 1 2.531-1.893c1-.475 2.143-.712 3.43-.712 1.088 0 2.05.143 2.887.43.85.288 1.562.732 2.137 1.332.587.587 1.031 1.343 1.331 2.268.3.924.45 2.024.45 3.299v13.328h-3.487V23.178c0-1.137-.181-2.018-.543-2.643-.35-.637-.85-1.08-1.5-1.33-.637-.263-1.4-.394-2.287-.394-.762 0-1.437.131-2.024.393a4.182 4.182 0 0 0-1.481 1.088c-.4.45-.706.968-.919 1.555-.2.588-.3 1.213-.3 1.875Zm21.257-3.562V44.34h-3.486V16.26h3.186l.3 3.9Zm13.665 6.074v.393c0 1.475-.175 2.843-.525 4.106-.35 1.25-.862 2.336-1.537 3.261a6.995 6.995 0 0 1-2.455 2.156c-.975.512-2.094.768-3.356.768-1.287 0-2.424-.212-3.411-.637a6.721 6.721 0 0 1-2.512-1.856c-.687-.812-1.237-1.787-1.65-2.924-.4-1.137-.674-2.418-.824-3.843V25.56c.15-1.5.431-2.843.843-4.03.412-1.187.956-2.2 1.631-3.037a6.692 6.692 0 0 1 2.493-1.93c.975-.45 2.099-.675 3.374-.675s2.406.25 3.393.75a6.831 6.831 0 0 1 2.493 2.099c.675.912 1.181 2.005 1.518 3.28.35 1.262.525 2.668.525 4.218Zm-3.486.393v-.393a12.24 12.24 0 0 0-.319-2.85c-.213-.9-.544-1.686-.994-2.361a4.724 4.724 0 0 0-1.687-1.612c-.687-.4-1.505-.6-2.455-.6-.875 0-1.637.15-2.287.45-.637.3-1.181.706-1.631 1.218a6.48 6.48 0 0 0-1.106 1.725 9.871 9.871 0 0 0-.618 1.987v4.855c.25.874.599 1.699 1.049 2.474a5.44 5.44 0 0 0 1.8 1.856c.75.462 1.693.693 2.83.693.938 0 1.744-.194 2.418-.581.688-.4 1.25-.944 1.687-1.63a7.45 7.45 0 0 0 .994-2.363c.212-.9.319-1.855.319-2.868ZM36.265 16.478a5.086 5.086 0 0 0 5.085-5.087 5.086 5.086 0 1 0-5.085 5.087Zm-17.798-5.087c-.987 0-1.953.087-2.899.24a7.631 7.631 0 0 0-7.272-5.327 7.632 7.632 0 0 0-7.628 7.63 7.615 7.615 0 0 0 2.706 5.825 17.711 17.711 0 0 0-2.706 9.437C.668 39.029 8.637 47 18.467 47c9.83 0 17.798-7.971 17.798-17.804 0-9.834-7.969-17.805-17.798-17.805Zm6.941 22.892a5.073 5.073 0 0 0-8.797 0 5.074 5.074 0 0 1-.687-2.544 5.088 5.088 0 0 1 5.085-5.087 5.088 5.088 0 0 1 5.085 5.087c0 .926-.254 1.796-.686 2.544Z" fill="#999"/></svg>