<svg width="217" height="42" fill="none" xmlns="http://www.w3.org/2000/svg"><path d="M66.357 20.172h-5.59l-.03-2.348h5.074c.838 0 1.57-.142 2.197-.424.626-.283 1.11-.687 1.454-1.212.353-.535.53-1.171.53-1.908 0-.808-.157-1.465-.47-1.97-.303-.514-.772-.888-1.408-1.12-.626-.243-1.424-.364-2.394-.364h-4.3v19.66h-2.923V8.433h7.224c1.131 0 2.141.116 3.03.348.888.223 1.64.576 2.257 1.06a4.516 4.516 0 0 1 1.423 1.818c.323.737.485 1.62.485 2.65 0 .91-.232 1.733-.697 2.47-.464.727-1.11 1.323-1.938 1.787-.818.465-1.778.762-2.878.894l-1.045.712Zm-.137 10.314h-6.603l1.65-2.378h4.953c.93 0 1.717-.161 2.363-.484.657-.323 1.156-.778 1.5-1.364.343-.595.515-1.297.515-2.105 0-.818-.147-1.525-.44-2.12-.292-.596-.752-1.056-1.378-1.379-.626-.323-1.434-.484-2.423-.484H62.19l.03-2.348h5.696l.62.848c1.061.09 1.96.394 2.697.909a4.94 4.94 0 0 1 1.681 1.939c.394.787.59 1.656.59 2.605 0 1.373-.302 2.534-.908 3.483-.596.94-1.439 1.657-2.53 2.151-1.09.485-2.372.727-3.847.727Zm10.436-8.012v-.349c0-1.181.172-2.277.515-3.286.343-1.02.838-1.904 1.485-2.651a6.622 6.622 0 0 1 2.347-1.757c.92-.424 1.95-.636 3.09-.636 1.151 0 2.186.212 3.105.636.93.414 1.717 1 2.363 1.757.656.747 1.156 1.63 1.5 2.65.343 1.01.514 2.106.514 3.287v.349c0 1.181-.171 2.277-.514 3.287a7.863 7.863 0 0 1-1.5 2.65 6.87 6.87 0 0 1-2.348 1.757c-.908.414-1.938.621-3.09.621-1.15 0-2.186-.207-3.105-.62a7.025 7.025 0 0 1-2.362-1.758 8.005 8.005 0 0 1-1.485-2.65c-.343-1.01-.515-2.106-.515-3.287Zm2.802-.349v.349c0 .818.096 1.59.288 2.317.192.717.48 1.353.864 1.909a4.37 4.37 0 0 0 1.469 1.317c.585.313 1.267.47 2.044.47.768 0 1.44-.157 2.015-.47a4.23 4.23 0 0 0 1.454-1.317 6.1 6.1 0 0 0 .863-1.909c.202-.727.303-1.5.303-2.317v-.349c0-.807-.1-1.57-.303-2.287a5.89 5.89 0 0 0-.878-1.923 4.177 4.177 0 0 0-1.454-1.333c-.576-.323-1.252-.485-2.03-.485-.767 0-1.444.162-2.03.485a4.36 4.36 0 0 0-1.454 1.333 6.084 6.084 0 0 0-.863 1.923 8.817 8.817 0 0 0-.288 2.287Zm14.89.349v-.349c0-1.181.171-2.277.514-3.286.344-1.02.838-1.904 1.485-2.651a6.623 6.623 0 0 1 2.347-1.757c.92-.424 1.949-.636 3.09-.636 1.151 0 2.186.212 3.105.636.929.414 1.717 1 2.363 1.757.656.747 1.156 1.63 1.5 2.65.343 1.01.515 2.106.515 3.287v.349c0 1.181-.172 2.277-.515 3.287a7.883 7.883 0 0 1-1.5 2.65 6.868 6.868 0 0 1-2.348 1.757c-.908.414-1.938.621-3.09.621-1.151 0-2.186-.207-3.104-.62a7.027 7.027 0 0 1-2.363-1.758 8.007 8.007 0 0 1-1.485-2.65c-.343-1.01-.515-2.106-.515-3.287Zm2.801-.349v.349c0 .818.096 1.59.288 2.317a6.1 6.1 0 0 0 .864 1.909 4.37 4.37 0 0 0 1.469 1.317c.585.313 1.267.47 2.044.47.768 0 1.439-.157 2.015-.47a4.229 4.229 0 0 0 1.454-1.317 6.075 6.075 0 0 0 .863-1.909c.202-.727.303-1.5.303-2.317v-.349c0-.807-.101-1.57-.303-2.287a5.868 5.868 0 0 0-.878-1.923 4.184 4.184 0 0 0-1.454-1.333c-.576-.323-1.252-.485-2.03-.485-.767 0-1.444.162-2.03.485a4.36 4.36 0 0 0-1.454 1.333 6.081 6.081 0 0 0-.863 1.923 8.813 8.813 0 0 0-.288 2.287Zm18.418-4.77v13.131h-2.817V14.098h2.666l.151 3.256Zm-.575 4.316-1.303-.045c.01-1.121.157-2.156.44-3.105.282-.96.701-1.793 1.257-2.5a5.584 5.584 0 0 1 2.075-1.635c.828-.394 1.787-.591 2.878-.591.767 0 1.474.111 2.12.333.646.212 1.207.55 1.681 1.015.475.464.843 1.06 1.106 1.787.263.727.394 1.606.394 2.636v10.92h-2.802V19.702c0-.858-.147-1.545-.439-2.06a2.513 2.513 0 0 0-1.212-1.12c-.525-.243-1.141-.364-1.848-.364-.828 0-1.52.146-2.075.439a3.5 3.5 0 0 0-1.333 1.212 5.453 5.453 0 0 0-.727 1.772 9.935 9.935 0 0 0-.212 2.09Zm10.618-1.545-1.879.576a8.24 8.24 0 0 1 .44-2.59 7.02 7.02 0 0 1 1.257-2.212 5.947 5.947 0 0 1 2.045-1.53c.807-.383 1.731-.575 2.771-.575.879 0 1.656.116 2.333.348a4.22 4.22 0 0 1 1.727 1.076c.474.474.833 1.085 1.075 1.832.242.748.364 1.636.364 2.666v10.77h-2.818v-10.8c0-.919-.146-1.63-.439-2.136a2.29 2.29 0 0 0-1.212-1.075c-.515-.212-1.131-.318-1.848-.318-.615 0-1.161.106-1.635.318a3.379 3.379 0 0 0-1.197.878c-.323.364-.57.783-.742 1.258a4.65 4.65 0 0 0-.242 1.514Zm21.174 10.663c-1.141 0-2.176-.192-3.105-.575a7.044 7.044 0 0 1-2.378-1.651 7.342 7.342 0 0 1-1.514-2.515c-.354-.969-.531-2.03-.531-3.18v-.636c0-1.333.197-2.52.591-3.56.394-1.05.929-1.939 1.606-2.666a6.873 6.873 0 0 1 2.302-1.65 6.613 6.613 0 0 1 2.666-.561c1.171 0 2.181.202 3.029.606.858.404 1.56.97 2.105 1.696.546.717.95 1.565 1.212 2.545.263.97.394 2.03.394 3.18v1.258h-12.238v-2.287h9.436v-.212a6.994 6.994 0 0 0-.455-2.121 3.81 3.81 0 0 0-1.211-1.696c-.556-.445-1.313-.667-2.272-.667-.636 0-1.222.136-1.757.41a3.746 3.746 0 0 0-1.379 1.18c-.383.526-.681 1.167-.893 1.924-.212.757-.318 1.63-.318 2.62v.637c0 .777.106 1.51.318 2.196.222.676.54 1.272.954 1.787.424.515.934.919 1.53 1.212.606.293 1.292.44 2.06.44.989 0 1.827-.203 2.514-.607a6.208 6.208 0 0 0 1.802-1.62l1.697 1.348a7.868 7.868 0 0 1-1.348 1.53c-.545.484-1.217.878-2.015 1.18-.787.304-1.721.455-2.802.455Zm12.451-14.116v13.813h-2.802V14.098h2.726l.076 2.575Zm5.119-2.666-.015 2.605a4.039 4.039 0 0 0-.666-.09 7.13 7.13 0 0 0-.697-.031c-.646 0-1.217.1-1.712.303a3.54 3.54 0 0 0-1.257.848 4.087 4.087 0 0 0-.818 1.303 6.23 6.23 0 0 0-.378 1.636l-.788.454c0-.99.096-1.919.288-2.787.202-.869.51-1.636.924-2.302a4.523 4.523 0 0 1 1.575-1.575c.646-.384 1.414-.576 2.302-.576.202 0 .434.025.697.076.262.04.444.085.545.136Zm11.648 13.677v-8.436c0-.647-.132-1.207-.394-1.682a2.575 2.575 0 0 0-1.151-1.12c-.515-.263-1.151-.394-1.909-.394-.706 0-1.327.12-1.863.363-.525.243-.939.56-1.242.954a2.096 2.096 0 0 0-.439 1.273h-2.802c0-.586.151-1.166.454-1.742.303-.576.738-1.096 1.303-1.56.576-.475 1.262-.848 2.06-1.121.808-.283 1.706-.424 2.696-.424 1.192 0 2.242.202 3.15.606.919.404 1.636 1.015 2.151 1.832.525.808.788 1.823.788 3.045v7.634c0 .545.045 1.126.136 1.742a6.84 6.84 0 0 0 .439 1.59v.242h-2.923c-.141-.323-.252-.752-.333-1.287a10.351 10.351 0 0 1-.121-1.515Zm.484-7.134.031 1.97h-2.833c-.797 0-1.509.065-2.135.196-.626.121-1.151.308-1.576.56a2.666 2.666 0 0 0-.969.955c-.222.373-.333.813-.333 1.317 0 .516.116.985.348 1.41.232.423.581.762 1.045 1.014.475.242 1.056.363 1.742.363.858 0 1.616-.181 2.272-.545.657-.363 1.177-.808 1.56-1.333.394-.525.606-1.035.636-1.53l1.197 1.349c-.071.424-.263.893-.576 1.408a6.736 6.736 0 0 1-1.257 1.485 6.785 6.785 0 0 1-1.848 1.166c-.706.303-1.504.454-2.393.454-1.11 0-2.085-.217-2.923-.651-.828-.434-1.474-1.015-1.939-1.742a4.614 4.614 0 0 1-.681-2.469c0-.878.171-1.65.515-2.317a4.472 4.472 0 0 1 1.484-1.681c.646-.455 1.424-.798 2.333-1.03.908-.233 1.923-.349 3.044-.349h3.256Zm9.528-2.953v12.89h-2.803v-16.39h2.651l.152 3.5Zm-.667 4.074-1.166-.045c.01-1.121.177-2.156.5-3.105.323-.96.777-1.793 1.363-2.5a6.074 6.074 0 0 1 2.09-1.635c.818-.394 1.722-.591 2.711-.591.808 0 1.535.111 2.181.333a3.946 3.946 0 0 1 1.651 1.03c.465.475.818 1.09 1.061 1.848.242.747.363 1.661.363 2.741v10.74h-2.817v-10.77c0-.858-.126-1.545-.379-2.06-.252-.525-.621-.904-1.105-1.136-.485-.242-1.081-.363-1.788-.363a4.14 4.14 0 0 0-1.908.439 4.558 4.558 0 0 0-1.469 1.212 6.114 6.114 0 0 0-.955 1.772 6.48 6.48 0 0 0-.333 2.09Zm25.628-7.573h2.544v16.04c0 1.444-.292 2.676-.878 3.696a5.725 5.725 0 0 1-2.454 2.317c-1.04.535-2.241.803-3.605.803-.565 0-1.231-.091-1.999-.273a8.081 8.081 0 0 1-2.242-.893 5.59 5.59 0 0 1-1.832-1.682l1.469-1.666c.687.828 1.403 1.404 2.151 1.727.757.323 1.504.484 2.241.484.889 0 1.656-.166 2.303-.5a3.486 3.486 0 0 0 1.499-1.484c.364-.646.545-1.444.545-2.393V17.703l.258-3.605Zm-11.284 8.376v-.318c0-1.252.146-2.388.439-3.408.303-1.03.732-1.914 1.287-2.65a5.793 5.793 0 0 1 2.045-1.697c.798-.404 1.697-.606 2.696-.606 1.03 0 1.929.182 2.696.545a5.182 5.182 0 0 1 1.969 1.56c.546.677.975 1.495 1.288 2.454.313.96.53 2.045.651 3.256v1.394c-.111 1.201-.328 2.282-.651 3.241-.313.96-.742 1.777-1.288 2.454a5.383 5.383 0 0 1-1.969 1.56c-.777.354-1.686.53-2.726.53-.979 0-1.868-.207-2.666-.62a6.071 6.071 0 0 1-2.029-1.743c-.566-.747-1-1.625-1.303-2.635-.293-1.02-.439-2.126-.439-3.317Zm2.802-.318v.318c0 .818.081 1.585.242 2.302a6.25 6.25 0 0 0 .773 1.893c.353.546.802.975 1.348 1.288.545.303 1.196.454 1.954.454.929 0 1.696-.197 2.302-.59a4.28 4.28 0 0 0 1.439-1.56 9.031 9.031 0 0 0 .848-2.106v-3.65a7.454 7.454 0 0 0-.515-1.606 4.952 4.952 0 0 0-.878-1.393 3.806 3.806 0 0 0-1.318-.985c-.525-.242-1.141-.363-1.848-.363-.768 0-1.429.161-1.984.484a3.855 3.855 0 0 0-1.348 1.303c-.344.545-.601 1.181-.773 1.909a10.49 10.49 0 0 0-.242 2.302Zm-184.31-3.839c7.806-4.904 18.337-1.272 13.934 7.31-4.404 8.576-44.67-7.32-28.167.58 16.501 7.9 22.863 23.99 29.616 8.78 6.753-15.21 14.89-48.123-7.994-28.121S8.44 24.43 18.183 18.316Z" fill="#999"/></svg>