<svg width="157" height="42" fill="none" xmlns="http://www.w3.org/2000/svg"><path d="M65.348 30.462h-4.604l.03-2.378h4.574c1.576 0 2.888-.329 3.938-.985 1.05-.666 1.838-1.595 2.363-2.787.535-1.202.803-2.605.803-4.21v-1.349c0-1.262-.151-2.383-.454-3.362-.303-.99-.748-1.823-1.333-2.5a5.63 5.63 0 0 0-2.151-1.56c-.838-.353-1.802-.53-2.893-.53h-4.968V8.409h4.968c1.444 0 2.762.243 3.953.727a8.498 8.498 0 0 1 3.075 2.075c.868.9 1.535 1.99 2 3.272.464 1.272.696 2.706.696 4.302V20.1c0 1.596-.232 3.035-.697 4.317-.464 1.272-1.136 2.358-2.014 3.257-.869.898-1.919 1.59-3.15 2.075-1.222.474-2.6.712-4.136.712ZM62.304 8.408v22.053H59.38V8.409h2.923Zm19.811 8.24v13.814h-2.802V14.073h2.727l.075 2.575Zm5.12-2.666-.015 2.605a4.046 4.046 0 0 0-.667-.09 7.082 7.082 0 0 0-.696-.03c-.647 0-1.217.1-1.712.302a3.544 3.544 0 0 0-1.257.848 4.08 4.08 0 0 0-.818 1.303 6.262 6.262 0 0 0-.379 1.636l-.787.454c0-.99.096-1.918.288-2.787.202-.868.51-1.636.924-2.302a4.523 4.523 0 0 1 1.575-1.575c.646-.384 1.413-.576 2.302-.576.202 0 .434.025.697.076.262.04.444.086.545.136Zm1.545 8.467v-.348c0-1.182.172-2.277.515-3.287.343-1.02.838-1.904 1.484-2.65a6.624 6.624 0 0 1 2.348-1.758c.919-.424 1.949-.636 3.09-.636 1.15 0 2.186.212 3.105.636a6.6 6.6 0 0 1 2.363 1.757c.656.747 1.156 1.631 1.499 2.65.344 1.01.515 2.106.515 3.288v.348c0 1.181-.171 2.277-.515 3.287a7.864 7.864 0 0 1-1.499 2.65 6.878 6.878 0 0 1-2.348 1.758c-.909.414-1.939.62-3.09.62-1.151 0-2.186-.206-3.105-.62a7.027 7.027 0 0 1-2.363-1.757 8.007 8.007 0 0 1-1.484-2.651c-.343-1.01-.515-2.105-.515-3.287Zm2.802-.348v.348c0 .818.096 1.59.288 2.317.192.717.48 1.354.863 1.909a4.37 4.37 0 0 0 1.47 1.318c.585.313 1.267.47 2.044.47.767 0 1.439-.157 2.015-.47a4.228 4.228 0 0 0 1.454-1.318 6.11 6.11 0 0 0 .863-1.909 8.612 8.612 0 0 0 .303-2.317v-.348c0-.808-.101-1.57-.303-2.287a5.9 5.9 0 0 0-.878-1.924 4.174 4.174 0 0 0-1.455-1.333c-.575-.323-1.252-.485-2.03-.485-.767 0-1.443.162-2.029.485a4.357 4.357 0 0 0-1.454 1.333 6.081 6.081 0 0 0-.863 1.924 8.813 8.813 0 0 0-.288 2.287Zm18.433-4.877v19.539h-2.817v-22.69h2.575l.242 3.15Zm11.042 4.907v.318c0 1.192-.141 2.297-.424 3.317-.283 1.01-.697 1.888-1.242 2.636a5.653 5.653 0 0 1-1.984 1.741c-.788.415-1.692.622-2.712.622-1.04 0-1.958-.172-2.756-.515a5.442 5.442 0 0 1-2.03-1.5c-.555-.656-.999-1.444-1.333-2.363-.323-.919-.545-1.954-.666-3.105v-1.696c.121-1.212.348-2.297.681-3.257.334-.959.773-1.777 1.318-2.454a5.415 5.415 0 0 1 2.015-1.56c.787-.363 1.696-.545 2.726-.545s1.944.202 2.742.606a5.53 5.53 0 0 1 2.014 1.696c.545.738.954 1.621 1.227 2.651.283 1.02.424 2.156.424 3.408Zm-2.817.318v-.318c0-.818-.086-1.585-.258-2.302a5.794 5.794 0 0 0-.803-1.909 3.814 3.814 0 0 0-1.363-1.302c-.555-.323-1.216-.485-1.984-.485-.707 0-1.323.121-1.848.364a3.98 3.98 0 0 0-1.317.984 5.209 5.209 0 0 0-.894 1.393 8.012 8.012 0 0 0-.5 1.606v3.923a8.78 8.78 0 0 0 .848 2 4.398 4.398 0 0 0 1.454 1.499c.606.373 1.369.56 2.287.56.758 0 1.409-.156 1.954-.47a3.946 3.946 0 0 0 1.363-1.317 5.98 5.98 0 0 0 .803-1.909c.172-.726.258-1.499.258-2.317Zm9.436-15.252v23.265h-2.817V7.197h2.817Zm11.299 23.568c-1.141 0-2.176-.192-3.105-.576a7.043 7.043 0 0 1-2.378-1.651 7.34 7.34 0 0 1-1.514-2.514c-.354-.97-.531-2.03-.531-3.181v-.636c0-1.333.197-2.52.591-3.56.394-1.05.929-1.938 1.606-2.665a6.874 6.874 0 0 1 2.302-1.651 6.613 6.613 0 0 1 2.666-.56c1.171 0 2.181.201 3.029.605.858.404 1.56.97 2.105 1.696.546.717.95 1.566 1.212 2.545.263.97.394 2.03.394 3.18v1.258h-12.238v-2.287h9.436v-.212a6.993 6.993 0 0 0-.455-2.12 3.81 3.81 0 0 0-1.211-1.697c-.556-.444-1.313-.667-2.272-.667a3.81 3.81 0 0 0-1.757.41 3.746 3.746 0 0 0-1.379 1.18c-.383.526-.681 1.167-.893 1.924-.212.758-.318 1.631-.318 2.62v.637c0 .777.106 1.51.318 2.196.222.677.54 1.272.954 1.787.424.515.934.92 1.53 1.212.606.293 1.292.44 2.06.44.989 0 1.827-.203 2.514-.607a6.22 6.22 0 0 0 1.802-1.62l1.697 1.348a7.87 7.87 0 0 1-1.348 1.53c-.545.484-1.217.878-2.015 1.181-.787.303-1.721.455-2.802.455Zm16.51-16.692v2.15h-8.861v-2.15h8.861Zm-5.862-3.983h2.802v16.312c0 .556.086.975.258 1.258.171.282.394.469.666.56.273.09.566.136.879.136.232 0 .474-.02.727-.06.262-.05.459-.091.59-.122l.016 2.288a6.57 6.57 0 0 1-.879.197c-.353.07-.782.106-1.287.106a4.368 4.368 0 0 1-1.894-.41c-.575-.272-1.035-.727-1.378-1.363-.333-.646-.5-1.514-.5-2.605V10.09ZM4.27 12.834C15.819-7.214 36.393-1.023 29.93 19.752c-6.463 20.775 12.52.93 11.605 12.967-.916 12.035-36.838 11.11-25.294-.936 11.538-12.046 12.865-16.182.996-8.43-11.869 7.753-21.81 4.828-12.967-10.52Z" fill="#999"/><path d="M4.27 12.834C15.819-7.214 36.393-1.023 29.93 19.752c-6.463 20.775 12.52.93 11.605 12.967-.916 12.035-36.838 11.11-25.294-.936 11.538-12.046 12.865-16.182.996-8.43-11.869 7.753-21.81 4.828-12.967-10.52Z" fill="#999"/></svg>