<svg width="196" height="42" fill="none" xmlns="http://www.w3.org/2000/svg"><path d="M76.048 18.74v1.393c0 1.655-.207 3.14-.621 4.453-.414 1.312-1.01 2.428-1.788 3.347a7.752 7.752 0 0 1-2.802 2.105c-1.08.485-2.292.727-3.635.727-1.302 0-2.499-.242-3.59-.727a8.071 8.071 0 0 1-2.817-2.105c-.787-.919-1.398-2.035-1.833-3.347-.434-1.313-.65-2.797-.65-4.453v-1.394c0-1.656.211-3.135.635-4.438.434-1.313 1.045-2.428 1.833-3.347a7.85 7.85 0 0 1 2.802-2.12c1.09-.485 2.287-.728 3.59-.728 1.343 0 2.555.243 3.635.727a7.68 7.68 0 0 1 2.802 2.12c.788.92 1.389 2.036 1.803 3.348.424 1.303.636 2.782.636 4.438Zm-2.893 1.393v-1.424c0-1.313-.137-2.474-.41-3.484-.262-1.01-.65-1.858-1.166-2.544a5.03 5.03 0 0 0-1.893-1.56c-.737-.354-1.575-.53-2.514-.53-.909 0-1.732.176-2.469.53a5.227 5.227 0 0 0-1.878 1.56c-.515.686-.914 1.534-1.197 2.544-.282 1.01-.424 2.171-.424 3.484v1.424c0 1.322.142 2.494.424 3.514.283 1.01.687 1.863 1.212 2.56a5.359 5.359 0 0 0 1.893 1.56c.737.353 1.56.53 2.47.53.948 0 1.791-.177 2.529-.53a4.94 4.94 0 0 0 1.863-1.56c.515-.698.903-1.55 1.166-2.56.262-1.02.394-2.192.394-3.514Zm9.648-2.909v19.54h-2.817v-22.69h2.575l.242 3.15Zm11.042 4.908v.318c0 1.192-.142 2.297-.424 3.317-.283 1.01-.697 1.888-1.242 2.636a5.65 5.65 0 0 1-1.985 1.741c-.787.414-1.69.621-2.71.621-1.04 0-1.96-.171-2.757-.515a5.438 5.438 0 0 1-2.03-1.5c-.555-.655-1-1.443-1.333-2.362-.323-.919-.545-1.954-.666-3.105v-1.696c.12-1.212.348-2.298.681-3.257.333-.96.773-1.777 1.318-2.454a5.409 5.409 0 0 1 2.014-1.56c.788-.363 1.697-.545 2.727-.545 1.03 0 1.944.202 2.741.606.798.394 1.47.96 2.015 1.696.545.737.954 1.621 1.227 2.65.282 1.02.424 2.157.424 3.409Zm-2.817.318v-.318c0-.818-.086-1.585-.258-2.302a5.815 5.815 0 0 0-.803-1.909 3.824 3.824 0 0 0-1.363-1.302c-.555-.324-1.217-.485-1.984-.485-.707 0-1.323.121-1.848.363-.515.243-.954.57-1.318.985a5.226 5.226 0 0 0-.893 1.393 8.01 8.01 0 0 0-.5 1.606v3.923c.202.707.484 1.373.848 2a4.396 4.396 0 0 0 1.454 1.499c.606.373 1.368.56 2.287.56.757 0 1.409-.156 1.954-.47a3.956 3.956 0 0 0 1.363-1.317 6.004 6.004 0 0 0 .803-1.909c.172-.727.258-1.5.258-2.317Zm13.192 8.315c-1.141 0-2.176-.192-3.105-.575a7.04 7.04 0 0 1-2.378-1.651 7.343 7.343 0 0 1-1.515-2.515c-.353-.969-.53-2.03-.53-3.18v-.636c0-1.333.197-2.52.591-3.56.394-1.05.929-1.939 1.605-2.666a6.873 6.873 0 0 1 2.303-1.65 6.613 6.613 0 0 1 2.666-.561c1.171 0 2.181.202 3.029.606.858.404 1.56.97 2.105 1.696.545.717.949 1.565 1.212 2.545.262.97.394 2.03.394 3.18v1.258H98.358v-2.287h9.437v-.212a6.995 6.995 0 0 0-.455-2.12 3.81 3.81 0 0 0-1.211-1.697c-.556-.445-1.313-.667-2.272-.667-.637 0-1.222.137-1.757.41a3.74 3.74 0 0 0-1.379 1.18c-.383.526-.681 1.167-.893 1.924-.213.758-.319 1.631-.319 2.62v.637c0 .777.106 1.51.319 2.196.222.677.54 1.272.954 1.787.424.515.934.92 1.53 1.212.605.293 1.292.44 2.06.44.989 0 1.827-.203 2.514-.607a6.234 6.234 0 0 0 1.802-1.62l1.697 1.348a7.868 7.868 0 0 1-1.348 1.53c-.546.484-1.217.878-2.015 1.18-.787.304-1.721.455-2.802.455Zm12.45-13.192v12.89h-2.802v-16.39h2.651l.151 3.499Zm-.666 4.074-1.166-.045c.01-1.121.176-2.156.5-3.105.323-.96.777-1.793 1.363-2.5a6.065 6.065 0 0 1 2.09-1.635c.818-.394 1.722-.591 2.711-.591.808 0 1.535.111 2.181.333a3.952 3.952 0 0 1 1.651 1.03c.465.475.818 1.09 1.06 1.848.243.747.364 1.661.364 2.742v10.738h-2.817V19.693c0-.858-.126-1.545-.379-2.06-.252-.525-.621-.903-1.106-1.136-.484-.242-1.08-.363-1.787-.363-.697 0-1.333.146-1.908.44a4.563 4.563 0 0 0-1.47 1.21 6.111 6.111 0 0 0-.954 1.773 6.48 6.48 0 0 0-.333 2.09Zm21.402 8.815h-4.605l.031-2.378h4.574c1.575 0 2.888-.328 3.938-.984 1.05-.667 1.838-1.596 2.363-2.787.535-1.202.803-2.605.803-4.21v-1.349c0-1.262-.152-2.383-.455-3.362-.303-.99-.747-1.823-1.333-2.5a5.626 5.626 0 0 0-2.15-1.56c-.839-.353-1.803-.53-2.893-.53h-4.968V8.41h4.968c1.444 0 2.761.243 3.953.727a8.497 8.497 0 0 1 3.074 2.075c.869.899 1.535 1.99 2 3.272.464 1.272.697 2.706.697 4.302v1.317c0 1.596-.233 3.035-.697 4.317-.465 1.272-1.136 2.358-2.015 3.256-.868.9-1.918 1.59-3.15 2.075-1.222.475-2.6.712-4.135.712ZM134.361 8.41v22.053h-2.923V8.41h2.923Zm16.268 14.04v-.347c0-1.182.171-2.277.515-3.287.343-1.02.838-1.904 1.484-2.65a6.62 6.62 0 0 1 2.348-1.758c.919-.424 1.949-.636 3.09-.636 1.151 0 2.186.212 3.105.636a6.6 6.6 0 0 1 2.363 1.757c.656.747 1.156 1.63 1.499 2.65.343 1.01.515 2.106.515 3.288v.348c0 1.181-.172 2.277-.515 3.287a7.863 7.863 0 0 1-1.499 2.65 6.876 6.876 0 0 1-2.348 1.757c-.909.414-1.939.621-3.09.621-1.151 0-2.186-.207-3.105-.62a7.02 7.02 0 0 1-2.363-1.758 8.003 8.003 0 0 1-1.484-2.65c-.344-1.01-.515-2.106-.515-3.287Zm2.802-.347v.348c0 .818.096 1.59.288 2.317.191.717.479 1.353.863 1.909.394.555.884.994 1.469 1.318.586.313 1.267.47 2.045.47.767 0 1.439-.157 2.014-.47a4.219 4.219 0 0 0 1.454-1.318 6.098 6.098 0 0 0 .864-1.909c.202-.727.303-1.5.303-2.317v-.348a8.41 8.41 0 0 0-.303-2.288 5.888 5.888 0 0 0-.879-1.923 4.165 4.165 0 0 0-1.454-1.333c-.575-.323-1.252-.485-2.029-.485-.768 0-1.444.162-2.03.485a4.355 4.355 0 0 0-1.454 1.333 6.055 6.055 0 0 0-.863 1.924 8.809 8.809 0 0 0-.288 2.287Zm14.889.348v-.348c0-1.182.171-2.277.515-3.287.343-1.02.838-1.904 1.484-2.65a6.62 6.62 0 0 1 2.348-1.758c.919-.424 1.949-.636 3.09-.636 1.151 0 2.186.212 3.105.636a6.6 6.6 0 0 1 2.363 1.757c.656.747 1.156 1.63 1.499 2.65.343 1.01.515 2.106.515 3.288v.348c0 1.181-.172 2.277-.515 3.287a7.863 7.863 0 0 1-1.499 2.65 6.876 6.876 0 0 1-2.348 1.757c-.909.414-1.939.621-3.09.621-1.151 0-2.186-.207-3.105-.62a7.02 7.02 0 0 1-2.363-1.758 8.003 8.003 0 0 1-1.484-2.65c-.344-1.01-.515-2.106-.515-3.287Zm2.802-.348v.348c0 .818.096 1.59.288 2.317.192.717.479 1.353.863 1.909.394.555.884.994 1.469 1.318.586.313 1.267.47 2.045.47.767 0 1.439-.157 2.014-.47a4.231 4.231 0 0 0 1.455-1.318 6.12 6.12 0 0 0 .863-1.909c.202-.727.303-1.5.303-2.317v-.348a8.41 8.41 0 0 0-.303-2.288 5.888 5.888 0 0 0-.879-1.923 4.165 4.165 0 0 0-1.454-1.333c-.575-.323-1.252-.485-2.029-.485-.768 0-1.444.162-2.03.485a4.365 4.365 0 0 0-1.454 1.333 6.077 6.077 0 0 0-.863 1.924 8.809 8.809 0 0 0-.288 2.287Zm18.433-5.453v13.813h-2.802V14.074h2.726l.076 2.575Zm5.12-2.666-.016 2.605a4.039 4.039 0 0 0-.666-.09 7.081 7.081 0 0 0-.697-.03c-.646 0-1.216.1-1.711.302a3.542 3.542 0 0 0-1.257.848 4.07 4.07 0 0 0-.818 1.303 6.271 6.271 0 0 0-.379 1.636l-.788.454c0-.99.096-1.918.288-2.787.202-.868.51-1.636.924-2.302a4.524 4.524 0 0 1 1.575-1.575c.647-.384 1.414-.576 2.303-.576.202 0 .434.025.696.076.263.04.445.086.546.136ZM25.997 5.682 41.253.595 25.997 20.943l15.256 20.348-15.256-5.087L41.253.595v40.696M25.997 5.683H.571l25.426 15.26L.571 36.204h25.426L.571 5.683v30.521" fill="#999"/></svg>