<svg width="134" height="47" fill="none" xmlns="http://www.w3.org/2000/svg"><path d="M71.645 43.798V19.617l.3-3.899h3.186v28.08h-3.486ZM58.017 26.084v-.394c0-1.55.181-2.955.544-4.217.362-1.275.893-2.368 1.593-3.28a7.154 7.154 0 0 1 2.53-2.1c1-.5 2.138-.75 3.412-.75 1.275 0 2.393.225 3.355.675a6.537 6.537 0 0 1 2.475 1.93c.687.838 1.23 1.85 1.63 3.037.4 1.188.675 2.53.825 4.03v1.725c-.137 1.487-.406 2.824-.806 4.011-.4 1.188-.943 2.2-1.63 3.037a6.754 6.754 0 0 1-2.493 1.93c-.975.438-2.106.657-3.393.657-1.25 0-2.375-.256-3.374-.769a7.457 7.457 0 0 1-2.53-2.155c-.688-.925-1.22-2.012-1.594-3.262-.363-1.262-.544-2.63-.544-4.105Zm3.487-.394v.394c0 1.012.106 1.968.318 2.868.213.887.538 1.674.975 2.362a5.124 5.124 0 0 0 1.687 1.63c.687.388 1.5.582 2.437.582 1.15 0 2.106-.25 2.868-.75a5.607 5.607 0 0 0 1.856-1.968 11.4 11.4 0 0 0 1.068-2.643v-4.518a8.967 8.967 0 0 0-.656-2.006 6.522 6.522 0 0 0-1.125-1.743 4.926 4.926 0 0 0-1.687-1.237c-.65-.312-1.412-.469-2.287-.469-.95 0-1.768.2-2.455.6-.687.4-1.256.95-1.706 1.65-.437.687-.762 1.48-.975 2.38-.212.9-.318 1.856-.318 2.868Zm22.662-6.785V36h-3.468V15.718h3.375l.093 3.187Zm6.336-3.3-.019 3.225a5.008 5.008 0 0 0-.825-.113 8.763 8.763 0 0 0-.862-.037c-.8 0-1.506.125-2.118.375a4.39 4.39 0 0 0-1.556 1.05c-.425.45-.762.987-1.012 1.611a7.749 7.749 0 0 0-.469 2.025l-.974.562c0-1.225.118-2.374.356-3.449.25-1.075.63-2.024 1.143-2.85.513-.836 1.162-1.486 1.95-1.949.8-.474 1.75-.712 2.849-.712.25 0 .537.031.862.094.325.05.55.106.675.169Zm10.947 17.92c.825 0 1.587-.168 2.287-.505a4.7 4.7 0 0 0 1.724-1.388c.45-.6.707-1.28.769-2.043h3.299c-.062 1.2-.469 2.318-1.218 3.356-.738 1.024-1.706 1.855-2.906 2.493-1.199.624-2.518.937-3.955.937-1.525 0-2.855-.269-3.993-.806a7.915 7.915 0 0 1-2.811-2.212 9.883 9.883 0 0 1-1.669-3.224 13.605 13.605 0 0 1-.543-3.88v-.788c0-1.362.181-2.649.543-3.861.375-1.225.931-2.306 1.669-3.243a7.912 7.912 0 0 1 2.811-2.212c1.138-.537 2.468-.806 3.993-.806 1.587 0 2.974.325 4.161.975 1.188.637 2.119 1.512 2.793 2.624.688 1.1 1.063 2.35 1.125 3.75h-3.299a4.994 4.994 0 0 0-.712-2.269 4.442 4.442 0 0 0-1.65-1.612c-.687-.413-1.493-.619-2.418-.619-1.062 0-1.956.213-2.68.638a4.697 4.697 0 0 0-1.706 1.687c-.413.7-.713 1.48-.9 2.343-.175.85-.262 1.718-.262 2.605v.788c0 .887.087 1.762.262 2.624a7.54 7.54 0 0 0 .881 2.343 4.9 4.9 0 0 0 1.706 1.687c.725.413 1.624.619 2.699.619Zm11.06-7.441v-.431c0-1.462.212-2.818.637-4.068.425-1.262 1.037-2.355 1.837-3.28a8.199 8.199 0 0 1 2.905-2.175c1.138-.524 2.412-.787 3.824-.787 1.425 0 2.706.263 3.843.787a8.154 8.154 0 0 1 2.924 2.175c.812.925 1.431 2.018 1.856 3.28.425 1.25.637 2.606.637 4.068v.431c0 1.462-.212 2.818-.637 4.068-.425 1.25-1.044 2.343-1.856 3.28a8.505 8.505 0 0 1-2.905 2.174c-1.125.513-2.4.769-3.824.769-1.425 0-2.706-.256-3.843-.769a8.694 8.694 0 0 1-2.924-2.174c-.8-.937-1.412-2.03-1.837-3.28-.425-1.25-.637-2.606-.637-4.068Zm3.467-.431v.431c0 1.012.119 1.968.356 2.868a7.56 7.56 0 0 0 1.069 2.362 5.402 5.402 0 0 0 1.818 1.63c.725.388 1.569.582 2.531.582.95 0 1.781-.194 2.493-.581a5.232 5.232 0 0 0 1.799-1.631 7.56 7.56 0 0 0 1.069-2.362c.25-.9.375-1.856.375-2.868v-.431c0-1-.125-1.943-.375-2.83-.238-.9-.6-1.694-1.087-2.381a5.168 5.168 0 0 0-1.8-1.65c-.712-.4-1.549-.6-2.512-.6-.949 0-1.787.2-2.512.6-.712.4-1.312.95-1.799 1.65-.475.687-.831 1.48-1.069 2.38a10.933 10.933 0 0 0-.356 2.83ZM15.554 5.516H.3v15.26h15.255V5.517Zm10.171 0H20.64V15.69h5.085V5.516Zm15.255 0H30.81v15.26h10.17V5.517ZM30.81 20.777H15.554V46.21H30.81V20.777Zm-20.34 15.26H.298v10.174h10.17V36.037Zm0-10.173H.298v5.087h10.17v-5.087Z" fill="#999"/><path opacity=".89" d="M40.98 36.037h-5.085v10.174h5.086V36.037Z" fill="#999"/><path d="M40.98 25.864h-5.085v5.087h5.086v-5.087Z" fill="#999"/></svg>