<svg width="36" height="36" fill="none" xmlns="http://www.w3.org/2000/svg"><path fill-rule="evenodd" clip-rule="evenodd" d="M9.3 5.73c-2.377 2.42-4.34 6.71-5.392 10.056a2 2 0 0 1-3.815-1.201C1.21 11.037 3.405 6.022 6.446 2.927 7.98 1.367 9.954.065 12.311.002c2.422-.064 4.684 1.19 6.724 3.529 1.24 1.422 2.081 2.83 2.371 4.26.31 1.527-.05 2.886-.831 4.011-.728 1.049-1.781 1.84-2.81 2.47-1.045.637-2.237 1.207-3.364 1.736l-.259.121c-2.284 1.07-4.24 1.987-5.487 3.17-.6.567-.929 1.106-1.065 1.65-.133.531-.132 1.268.281 2.331.829 2.13 2.903 4.169 5.804 5.776 2.867 1.587 6.303 2.616 9.464 2.878 3.229.268 5.807-.289 7.285-1.429a3.818 3.818 0 0 0 1.41-2.11c.242-.912.257-2.168-.208-3.86-.869-3.167-2.79-4.677-5.003-5.3-2.34-.66-5.127-.34-7.422.522-1.136.426-2.063.953-2.697 1.47a3.622 3.622 0 0 0-.658.671 1.31 1.31 0 0 0-.112.183c.033.03.082.07.153.12.465.328 1.49.756 3.434 1.042a2 2 0 1 1-.582 3.957c-2.188-.322-3.941-.872-5.158-1.731-1.322-.933-2.114-2.342-1.823-3.993.25-1.41 1.226-2.539 2.217-3.348 1.042-.85 2.373-1.573 3.82-2.116 2.87-1.077 6.548-1.575 9.912-.628 3.492.984 6.517 3.503 7.777 8.092.6 2.185.684 4.18.218 5.943a7.816 7.816 0 0 1-2.835 4.253c-2.623 2.025-6.4 2.551-10.058 2.248-3.725-.308-7.709-1.503-11.071-3.365-3.328-1.843-6.294-4.481-7.595-7.825-.65-1.674-.806-3.265-.433-4.753.37-1.477 1.208-2.649 2.194-3.582 1.739-1.648 4.257-2.823 6.324-3.787l.475-.222c1.142-.535 2.145-1.02 2.976-1.528.846-.516 1.348-.96 1.61-1.337.208-.3.274-.557.197-.935-.096-.476-.452-1.263-1.466-2.426-1.566-1.797-2.777-2.181-3.603-2.16-.892.025-1.94.532-3.117 1.73Zm6.371 16.282c.002 0 .007.006.013.019l-.013-.019Z" fill="#111"/></svg>