<svg width="155" height="47" viewBox="0 0 155 47" fill="none" xmlns="http://www.w3.org/2000/svg">
<path d="M69.5026 23.7782H62.5857L62.5482 20.8727H68.8277C69.865 20.8727 70.771 20.6978 71.5458 20.3479C72.3205 19.998 72.9204 19.4981 73.3453 18.8483C73.7826 18.186 74.0013 17.3987 74.0013 16.4864C74.0013 15.4867 73.8076 14.6744 73.4202 14.0496C73.0453 13.4123 72.4643 12.9499 71.677 12.6625C70.9022 12.3625 69.915 12.2126 68.7153 12.2126H63.3917V36.5435H59.774V9.2509H68.7153C70.1149 9.2509 71.3646 9.39461 72.4643 9.68203C73.564 9.95696 74.495 10.3943 75.2572 10.9942C76.032 11.5815 76.6194 12.3313 77.0193 13.2436C77.4192 14.1558 77.6191 15.2493 77.6191 16.5239C77.6191 17.6486 77.3317 18.6671 76.7568 19.5793C76.182 20.4791 75.3822 21.2164 74.3575 21.7912C73.3453 22.3661 72.1581 22.7347 70.796 22.8972L69.5026 23.7782ZM69.3339 36.5435H61.1611L63.2043 33.6005H69.3339C70.4835 33.6005 71.4583 33.4006 72.2581 33.0007C73.0703 32.6008 73.6889 32.0384 74.1138 31.3136C74.5387 30.5763 74.7511 29.7078 74.7511 28.7081C74.7511 27.6959 74.5699 26.8211 74.2075 26.0838C73.8451 25.3465 73.2765 24.7779 72.5017 24.378C71.727 23.9781 70.7272 23.7782 69.5026 23.7782H64.3477L64.3852 20.8727H71.4333L72.2018 21.9224C73.514 22.0349 74.6262 22.4098 75.5384 23.0471C76.4507 23.672 77.1442 24.4717 77.6191 25.4465C78.1065 26.4212 78.3502 27.4959 78.3502 28.6706C78.3502 30.3701 77.9753 31.8072 77.2255 32.9819C76.4882 34.1441 75.4447 35.0314 74.0951 35.6437C72.7454 36.2435 71.1584 36.5435 69.3339 36.5435ZM86.9353 7.75131V36.5435H83.4488V7.75131H86.9353ZM96.2703 16.2615V36.5435H92.7837V16.2615H96.2703ZM92.5213 10.8817C92.5213 10.3194 92.69 9.84449 93.0274 9.45709C93.3773 9.0697 93.8897 8.876 94.5645 8.876C95.2268 8.876 95.7329 9.0697 96.0828 9.45709C96.4452 9.84449 96.6264 10.3194 96.6264 10.8817C96.6264 11.4191 96.4452 11.8814 96.0828 12.2688C95.7329 12.6437 95.2268 12.8312 94.5645 12.8312C93.8897 12.8312 93.3773 12.6437 93.0274 12.2688C92.69 11.8814 92.5213 11.4191 92.5213 10.8817ZM105.287 20.2916V36.5435H101.8V16.2615H105.099L105.287 20.2916ZM104.574 25.6339L102.962 25.5777C102.975 24.1906 103.156 22.9097 103.506 21.735C103.856 20.5478 104.374 19.5168 105.062 18.6421C105.749 17.7673 106.605 17.0925 107.63 16.6176C108.654 16.1303 109.842 15.8866 111.191 15.8866C112.141 15.8866 113.016 16.0241 113.815 16.299C114.615 16.5614 115.309 16.98 115.896 17.5549C116.484 18.1297 116.94 18.867 117.265 19.7668C117.589 20.6665 117.752 21.7537 117.752 23.0284V36.5435H114.284V23.1971C114.284 22.1349 114.103 21.2851 113.741 20.6478C113.391 20.0105 112.891 19.5481 112.241 19.2607C111.591 18.9608 110.829 18.8108 109.954 18.8108C108.929 18.8108 108.073 18.992 107.386 19.3544C106.699 19.7168 106.149 20.2167 105.736 20.854C105.324 21.4913 105.024 22.2224 104.837 23.0471C104.662 23.8594 104.574 24.7217 104.574 25.6339ZM117.714 23.722L115.39 24.4343C115.403 23.3221 115.584 22.2536 115.934 21.2289C116.296 20.2042 116.815 19.2919 117.489 18.4921C118.177 17.6923 119.02 17.0613 120.02 16.5989C121.02 16.124 122.163 15.8866 123.45 15.8866C124.538 15.8866 125.5 16.0303 126.337 16.3177C127.187 16.6051 127.899 17.0488 128.474 17.6486C129.061 18.2359 129.505 18.992 129.805 19.9167C130.105 20.8415 130.255 21.9412 130.255 23.2158V36.5435H126.768V23.1784C126.768 22.0412 126.587 21.1602 126.225 20.5353C125.875 19.898 125.375 19.4544 124.725 19.2044C124.088 18.942 123.325 18.8108 122.438 18.8108C121.676 18.8108 121.001 18.942 120.414 19.2044C119.826 19.4669 119.333 19.8293 118.933 20.2916C118.533 20.7415 118.227 21.2601 118.014 21.8475C117.814 22.4348 117.714 23.0596 117.714 23.722ZM138.971 20.1604V44.3413H135.485V16.2615H138.671L138.971 20.1604ZM152.636 26.2338V26.6274C152.636 28.102 152.461 29.4704 152.111 30.7325C151.761 31.9822 151.249 33.0694 150.574 33.9942C149.912 34.9189 149.093 35.6375 148.119 36.1498C147.144 36.6622 146.025 36.9184 144.763 36.9184C143.476 36.9184 142.339 36.7059 141.352 36.281C140.364 35.8561 139.527 35.2376 138.84 34.4253C138.153 33.613 137.603 32.6383 137.19 31.5011C136.79 30.3639 136.516 29.083 136.366 27.6584V25.559C136.516 24.0594 136.797 22.716 137.209 21.5288C137.621 20.3416 138.165 19.3294 138.84 18.4921C139.527 17.6424 140.358 16.9988 141.333 16.5614C142.308 16.1115 143.432 15.8866 144.707 15.8866C145.982 15.8866 147.113 16.1365 148.1 16.6364C149.087 17.1238 149.918 17.8236 150.593 18.7358C151.268 19.6481 151.774 20.7415 152.111 22.0162C152.461 23.2783 152.636 24.6842 152.636 26.2338ZM149.15 26.6274V26.2338C149.15 25.2215 149.043 24.2718 148.831 23.3845C148.618 22.4848 148.287 21.6975 147.837 21.0227C147.4 20.3354 146.838 19.798 146.15 19.4106C145.463 19.0107 144.645 18.8108 143.695 18.8108C142.82 18.8108 142.058 18.9608 141.408 19.2607C140.771 19.5606 140.227 19.9667 139.777 20.4791C139.327 20.979 138.959 21.5538 138.671 22.2036C138.396 22.8409 138.19 23.5033 138.053 24.1906V29.0455C138.303 29.9203 138.652 30.745 139.102 31.5198C139.552 32.2821 140.152 32.9007 140.902 33.3756C141.652 33.8379 142.595 34.0691 143.732 34.0691C144.67 34.0691 145.476 33.8754 146.15 33.488C146.838 33.0881 147.4 32.5445 147.837 31.8572C148.287 31.1699 148.618 30.3826 148.831 29.4954C149.043 28.5956 149.15 27.6396 149.15 26.6274Z" fill="#999999"/>
<path d="M36.265 16.4782C39.0735 16.4782 41.3502 14.2007 41.3502 11.3913C41.3502 8.58183 39.0735 6.30432 36.265 6.30432C33.4565 6.30432 31.1798 8.58183 31.1798 11.3913C31.1798 14.2007 33.4565 16.4782 36.265 16.4782Z" fill="#999999"/>
<path d="M18.4667 11.3913C17.4801 11.3913 16.5139 11.4777 15.5681 11.6304C14.5917 8.54257 11.7033 6.30432 8.29621 6.30432C4.08564 6.30432 0.668365 9.72276 0.668365 13.9348C0.668365 16.2697 1.72101 18.3604 3.37371 19.7593C1.65999 22.4961 0.668365 25.7263 0.668365 29.1956C0.668365 39.0287 8.63692 47 18.4667 47C28.2964 47 36.265 39.0287 36.265 29.1956C36.265 19.3625 28.2964 11.3913 18.4667 11.3913ZM25.408 34.2826C24.5283 32.7616 22.8908 31.7391 21.0093 31.7391C19.1278 31.7391 17.4903 32.7616 16.6106 34.2826C16.1783 33.5348 15.9241 32.665 15.9241 31.7391C15.9241 28.9311 18.2022 26.6522 21.0093 26.6522C23.8163 26.6522 26.0945 28.9311 26.0945 31.7391C26.0945 32.665 25.8403 33.5348 25.408 34.2826Z" fill="#999999"/>
</svg>
