<svg width="217" height="42" viewBox="0 0 217 42" fill="none" xmlns="http://www.w3.org/2000/svg">
<path d="M66.3567 20.1715H60.7676L60.7373 17.8238H65.8114C66.6495 17.8238 67.3816 17.6825 68.0076 17.3997C68.6337 17.117 69.1184 16.7131 69.4617 16.188C69.8151 15.6529 69.9918 15.0167 69.9918 14.2796C69.9918 13.4718 69.8353 12.8154 69.5223 12.3105C69.2193 11.7956 68.7498 11.4219 68.1137 11.1897C67.4876 10.9474 66.6899 10.8262 65.7205 10.8262H61.4189V30.4863H58.4957V8.43305H65.7205C66.8514 8.43305 67.8612 8.54917 68.7498 8.78141C69.6384 9.00356 70.3907 9.35698 71.0066 9.84167C71.6327 10.3163 72.1073 10.9221 72.4304 11.6592C72.7535 12.3964 72.9151 13.2799 72.9151 14.3099C72.9151 15.2187 72.6828 16.0416 72.2183 16.7787C71.7538 17.5058 71.1076 18.1015 70.2796 18.566C69.4617 19.0305 68.5024 19.3284 67.4018 19.4597L66.3567 20.1715ZM66.2203 30.4863H59.6165L61.2675 28.1083H66.2203C67.1493 28.1083 67.9369 27.9467 68.5832 27.6236C69.2395 27.3005 69.7394 26.8461 70.0827 26.2604C70.426 25.6646 70.5977 24.9629 70.5977 24.1551C70.5977 23.3371 70.4513 22.6303 70.1584 22.0346C69.8656 21.4388 69.4061 20.9793 68.7801 20.6562C68.154 20.3331 67.3462 20.1715 66.3567 20.1715H62.1914L62.2217 17.8238H67.9167L68.5378 18.672C69.598 18.7629 70.4967 19.0658 71.2338 19.5808C71.9709 20.0857 72.5314 20.732 72.9151 21.5196C73.3089 22.3072 73.5058 23.1756 73.5058 24.1248C73.5058 25.498 73.2029 26.6593 72.597 27.6084C72.0012 28.5475 71.1581 29.2645 70.0675 29.7592C68.977 30.2439 67.6946 30.4863 66.2203 30.4863ZM76.6562 22.4738V22.1254C76.6562 20.944 76.8279 19.8484 77.1712 18.8387C77.5145 17.8188 78.0093 16.9352 78.6556 16.188C79.3018 15.4307 80.0844 14.845 81.0033 14.431C81.9222 14.0069 82.9521 13.7949 84.0931 13.7949C85.2443 13.7949 86.2793 14.0069 87.1982 14.431C88.1272 14.845 88.9148 15.4307 89.561 16.188C90.2174 16.9352 90.7172 17.8188 91.0605 18.8387C91.4038 19.8484 91.5755 20.944 91.5755 22.1254V22.4738C91.5755 23.6552 91.4038 24.7508 91.0605 25.7606C90.7172 26.7703 90.2174 27.6539 89.561 28.4112C88.9148 29.1584 88.1322 29.7441 87.2133 30.1682C86.3045 30.5822 85.2746 30.7892 84.1234 30.7892C82.9723 30.7892 81.9373 30.5822 81.0184 30.1682C80.0995 29.7441 79.3119 29.1584 78.6556 28.4112C78.0093 27.6539 77.5145 26.7703 77.1712 25.7606C76.8279 24.7508 76.6562 23.6552 76.6562 22.4738ZM79.4583 22.1254V22.4738C79.4583 23.2917 79.5543 24.0642 79.7461 24.7912C79.938 25.5081 80.2258 26.1443 80.6095 26.6997C81.0033 27.255 81.493 27.6943 82.0787 28.0174C82.6643 28.3304 83.3459 28.4869 84.1234 28.4869C84.8909 28.4869 85.5624 28.3304 86.1379 28.0174C86.7236 27.6943 87.2083 27.255 87.592 26.6997C87.9757 26.1443 88.2635 25.5081 88.4553 24.7912C88.6573 24.0642 88.7583 23.2917 88.7583 22.4738V22.1254C88.7583 21.3176 88.6573 20.5552 88.4553 19.8383C88.2635 19.1113 87.9706 18.4701 87.5768 17.9147C87.1931 17.3493 86.7084 16.905 86.1228 16.5818C85.5472 16.2587 84.8707 16.0971 84.0931 16.0971C83.3257 16.0971 82.6492 16.2587 82.0635 16.5818C81.488 16.905 81.0033 17.3493 80.6095 17.9147C80.2258 18.4701 79.938 19.1113 79.7461 19.8383C79.5543 20.5552 79.4583 21.3176 79.4583 22.1254ZM94.3473 22.4738V22.1254C94.3473 20.944 94.519 19.8484 94.8623 18.8387C95.2056 17.8188 95.7004 16.9352 96.3466 16.188C96.9929 15.4307 97.7754 14.845 98.6943 14.431C99.6132 14.0069 100.643 13.7949 101.784 13.7949C102.935 13.7949 103.97 14.0069 104.889 14.431C105.818 14.845 106.606 15.4307 107.252 16.188C107.908 16.9352 108.408 17.8188 108.752 18.8387C109.095 19.8484 109.267 20.944 109.267 22.1254V22.4738C109.267 23.6552 109.095 24.7508 108.752 25.7606C108.408 26.7703 107.908 27.6539 107.252 28.4112C106.606 29.1584 105.823 29.7441 104.904 30.1682C103.996 30.5822 102.966 30.7892 101.814 30.7892C100.663 30.7892 99.6284 30.5822 98.7095 30.1682C97.7906 29.7441 97.003 29.1584 96.3466 28.4112C95.7004 27.6539 95.2056 26.7703 94.8623 25.7606C94.519 24.7508 94.3473 23.6552 94.3473 22.4738ZM97.1494 22.1254V22.4738C97.1494 23.2917 97.2453 24.0642 97.4372 24.7912C97.629 25.5081 97.9168 26.1443 98.3005 26.6997C98.6943 27.255 99.1841 27.6943 99.7697 28.0174C100.355 28.3304 101.037 28.4869 101.814 28.4869C102.582 28.4869 103.253 28.3304 103.829 28.0174C104.415 27.6943 104.899 27.255 105.283 26.6997C105.667 26.1443 105.955 25.5081 106.146 24.7912C106.348 24.0642 106.449 23.2917 106.449 22.4738V22.1254C106.449 21.3176 106.348 20.5552 106.146 19.8383C105.955 19.1113 105.662 18.4701 105.268 17.9147C104.884 17.3493 104.399 16.905 103.814 16.5818C103.238 16.2587 102.562 16.0971 101.784 16.0971C101.017 16.0971 100.34 16.2587 99.7546 16.5818C99.179 16.905 98.6943 17.3493 98.3005 17.9147C97.9168 18.4701 97.629 19.1113 97.4372 19.8383C97.2453 20.5552 97.1494 21.3176 97.1494 22.1254ZM115.567 17.3543V30.4863H112.75V14.0978H115.416L115.567 17.3543ZM114.992 21.671L113.689 21.6256C113.699 20.5048 113.846 19.4698 114.129 18.5206C114.411 17.5613 114.83 16.7282 115.386 16.0214C115.941 15.3146 116.633 14.7693 117.461 14.3856C118.289 13.9918 119.248 13.7949 120.339 13.7949C121.106 13.7949 121.813 13.906 122.459 14.1281C123.105 14.3402 123.666 14.6784 124.14 15.1429C124.615 15.6074 124.983 16.2032 125.246 16.9302C125.509 17.6572 125.64 18.5357 125.64 19.5657V30.4863H122.838V19.702C122.838 18.8437 122.691 18.1571 122.399 17.6421C122.116 17.1271 121.712 16.7535 121.187 16.5212C120.662 16.2789 120.046 16.1577 119.339 16.1577C118.511 16.1577 117.819 16.3041 117.264 16.597C116.708 16.8898 116.264 17.2937 115.931 17.8087C115.598 18.3237 115.355 18.9144 115.204 19.5808C115.063 20.2372 114.992 20.9339 114.992 21.671ZM125.61 20.1261L123.731 20.7017C123.741 19.803 123.888 18.9396 124.171 18.1116C124.463 17.2836 124.883 16.5465 125.428 15.9002C125.983 15.254 126.665 14.7441 127.473 14.3705C128.28 13.9867 129.204 13.7949 130.244 13.7949C131.123 13.7949 131.9 13.911 132.577 14.1433C133.264 14.3755 133.839 14.734 134.304 15.2187C134.778 15.6932 135.137 16.3041 135.379 17.0514C135.621 17.7986 135.743 18.6872 135.743 19.7171V30.4863H132.925V19.6869C132.925 18.768 132.779 18.0561 132.486 17.5512C132.203 17.0362 131.799 16.6778 131.274 16.4758C130.759 16.2638 130.143 16.1577 129.426 16.1577C128.811 16.1577 128.265 16.2638 127.791 16.4758C127.316 16.6879 126.917 16.9807 126.594 17.3543C126.271 17.7178 126.024 18.1369 125.852 18.6115C125.69 19.086 125.61 19.5909 125.61 20.1261ZM146.784 30.7892C145.643 30.7892 144.608 30.5973 143.679 30.2136C142.76 29.8198 141.968 29.2695 141.301 28.5627C140.645 27.8558 140.14 27.0177 139.787 26.0484C139.433 25.079 139.256 24.0187 139.256 22.8676V22.2315C139.256 20.8986 139.453 19.7121 139.847 18.672C140.241 17.6219 140.776 16.7333 141.453 16.0063C142.129 15.2792 142.897 14.7289 143.755 14.3553C144.613 13.9817 145.502 13.7949 146.421 13.7949C147.592 13.7949 148.602 13.9968 149.45 14.4007C150.308 14.8047 151.01 15.3701 151.555 16.0971C152.101 16.8141 152.505 17.6623 152.767 18.6417C153.03 19.6111 153.161 20.6714 153.161 21.8225V23.0797H140.923V20.7925H150.359V20.5805C150.318 19.8535 150.167 19.1466 149.904 18.46C149.652 17.7734 149.248 17.2079 148.693 16.7636C148.137 16.3193 147.38 16.0971 146.421 16.0971C145.785 16.0971 145.199 16.2335 144.664 16.5061C144.129 16.7686 143.669 17.1624 143.285 17.6875C142.902 18.2126 142.604 18.8538 142.392 19.6111C142.18 20.3684 142.074 21.2419 142.074 22.2315V22.8676C142.074 23.6451 142.18 24.3772 142.392 25.0638C142.614 25.7404 142.932 26.3361 143.346 26.8511C143.77 27.3661 144.28 27.77 144.876 28.0628C145.482 28.3557 146.168 28.5021 146.936 28.5021C147.925 28.5021 148.763 28.3001 149.45 27.8962C150.137 27.4923 150.738 26.9521 151.252 26.2756L152.949 27.6236C152.595 28.1588 152.146 28.6687 151.601 29.1534C151.056 29.6381 150.384 30.0319 149.586 30.3348C148.799 30.6377 147.865 30.7892 146.784 30.7892ZM159.235 16.6727V30.4863H156.433V14.0978H159.159L159.235 16.6727ZM164.354 14.0069L164.339 16.6121C164.107 16.5616 163.885 16.5313 163.673 16.5212C163.471 16.5011 163.238 16.491 162.976 16.491C162.33 16.491 161.759 16.5919 161.264 16.7939C160.769 16.9958 160.35 17.2786 160.007 17.6421C159.664 18.0056 159.391 18.4398 159.189 18.9447C158.997 19.4395 158.871 19.9847 158.811 20.5805L158.023 21.0349C158.023 20.0453 158.119 19.1163 158.311 18.2479C158.513 17.3795 158.821 16.6121 159.235 15.9457C159.649 15.2691 160.174 14.7441 160.81 14.3705C161.456 13.9867 162.224 13.7949 163.112 13.7949C163.314 13.7949 163.546 13.8201 163.809 13.8706C164.071 13.911 164.253 13.9564 164.354 14.0069ZM176.002 27.6842V19.2476C176.002 18.6014 175.87 18.0409 175.608 17.5664C175.356 17.0817 174.972 16.7081 174.457 16.4455C173.942 16.183 173.306 16.0517 172.548 16.0517C171.842 16.0517 171.221 16.1729 170.685 16.4152C170.16 16.6576 169.746 16.9756 169.443 17.3694C169.151 17.7633 169.004 18.1874 169.004 18.6417H166.202C166.202 18.0561 166.353 17.4755 166.656 16.8999C166.959 16.3243 167.394 15.8043 167.959 15.3398C168.535 14.8652 169.221 14.4916 170.019 14.219C170.827 13.9363 171.725 13.7949 172.715 13.7949C173.907 13.7949 174.957 13.9968 175.865 14.4007C176.784 14.8047 177.501 15.4156 178.016 16.2335C178.541 17.0413 178.804 18.0561 178.804 19.2779V26.9117C178.804 27.457 178.849 28.0376 178.94 28.6535C179.041 29.2695 179.188 29.7996 179.379 30.2439V30.4863H176.456C176.315 30.1631 176.204 29.734 176.123 29.1988C176.042 28.6535 176.002 28.1487 176.002 27.6842ZM176.486 20.5502L176.517 22.5192H173.684C172.887 22.5192 172.175 22.5849 171.549 22.7161C170.923 22.8373 170.398 23.0241 169.973 23.2766C169.549 23.529 169.226 23.8471 169.004 24.2308C168.782 24.6044 168.671 25.0436 168.671 25.5485C168.671 26.0635 168.787 26.533 169.019 26.9571C169.251 27.3812 169.6 27.7195 170.064 27.972C170.539 28.2143 171.12 28.3355 171.806 28.3355C172.664 28.3355 173.422 28.1537 174.078 27.7902C174.735 27.4267 175.255 26.9824 175.638 26.4573C176.032 25.9322 176.244 25.4223 176.274 24.9275L177.471 26.2756C177.4 26.6997 177.208 27.1692 176.895 27.6842C176.582 28.1992 176.163 28.6939 175.638 29.1685C175.123 29.633 174.507 30.0218 173.79 30.3348C173.084 30.6377 172.286 30.7892 171.397 30.7892C170.287 30.7892 169.312 30.5721 168.474 30.1379C167.646 29.7037 167 29.1231 166.535 28.3961C166.081 27.6589 165.854 26.836 165.854 25.9272C165.854 25.0487 166.025 24.2762 166.369 23.6098C166.712 22.9332 167.207 22.3728 167.853 21.9285C168.499 21.4741 169.277 21.1308 170.186 20.8986C171.094 20.6663 172.109 20.5502 173.23 20.5502H176.486ZM186.014 17.5966V30.4863H183.211V14.0978H185.862L186.014 17.5966ZM185.347 21.671L184.181 21.6256C184.191 20.5048 184.358 19.4698 184.681 18.5206C185.004 17.5613 185.458 16.7282 186.044 16.0214C186.63 15.3146 187.326 14.7693 188.134 14.3856C188.952 13.9918 189.856 13.7949 190.845 13.7949C191.653 13.7949 192.38 13.906 193.026 14.1281C193.673 14.3402 194.223 14.6835 194.677 15.1581C195.142 15.6327 195.495 16.2486 195.738 17.0059C195.98 17.7532 196.101 18.667 196.101 19.7474V30.4863H193.284V19.7171C193.284 18.8588 193.158 18.1722 192.905 17.6572C192.653 17.1322 192.284 16.7535 191.8 16.5212C191.315 16.2789 190.719 16.1577 190.012 16.1577C189.315 16.1577 188.679 16.3041 188.104 16.597C187.538 16.8898 187.049 17.2937 186.635 17.8087C186.231 18.3237 185.913 18.9144 185.68 19.5808C185.458 20.2372 185.347 20.9339 185.347 21.671ZM210.975 14.0978H213.519V30.1379C213.519 31.5819 213.227 32.8138 212.641 33.8336C212.055 34.8535 211.237 35.626 210.187 36.151C209.147 36.6862 207.946 36.9538 206.582 36.9538C206.017 36.9538 205.351 36.8629 204.583 36.6812C203.826 36.5095 203.079 36.2116 202.341 35.7875C201.614 35.3735 201.003 34.8131 200.509 34.1063L201.978 32.4402C202.665 33.2682 203.381 33.8437 204.129 34.1669C204.886 34.49 205.633 34.6515 206.37 34.6515C207.259 34.6515 208.026 34.4849 208.673 34.1517C209.319 33.8185 209.819 33.3237 210.172 32.6674C210.536 32.0211 210.717 31.2234 210.717 30.2742V17.7027L210.975 14.0978ZM199.691 22.4738V22.1557C199.691 20.9036 199.837 19.7676 200.13 18.7478C200.433 17.7178 200.862 16.8343 201.417 16.0971C201.983 15.36 202.665 14.7946 203.462 14.4007C204.26 13.9968 205.159 13.7949 206.158 13.7949C207.188 13.7949 208.087 13.9766 208.854 14.3402C209.632 14.6936 210.288 15.2136 210.823 15.9002C211.369 16.5768 211.798 17.3947 212.111 18.354C212.424 19.3132 212.641 20.3987 212.762 21.6105V23.0039C212.651 24.2055 212.434 25.286 212.111 26.2453C211.798 27.2045 211.369 28.0224 210.823 28.699C210.288 29.3755 209.632 29.8956 208.854 30.2591C208.077 30.6125 207.168 30.7892 206.128 30.7892C205.149 30.7892 204.26 30.5822 203.462 30.1682C202.675 29.7542 201.998 29.1736 201.433 28.4264C200.867 27.6791 200.433 26.8006 200.13 25.7909C199.837 24.771 199.691 23.6653 199.691 22.4738ZM202.493 22.1557V22.4738C202.493 23.2917 202.574 24.0591 202.735 24.7761C202.907 25.493 203.164 26.1241 203.508 26.6694C203.861 27.2146 204.31 27.6438 204.856 27.9568C205.401 28.2597 206.052 28.4112 206.81 28.4112C207.739 28.4112 208.506 28.2143 209.112 27.8205C209.718 27.4267 210.197 26.9067 210.551 26.2604C210.914 25.6142 211.197 24.9124 211.399 24.1551V20.5048C211.288 19.9494 211.116 19.4142 210.884 18.8992C210.662 18.3742 210.369 17.9097 210.006 17.5058C209.652 17.0918 209.213 16.7636 208.688 16.5212C208.163 16.2789 207.547 16.1577 206.84 16.1577C206.072 16.1577 205.411 16.3193 204.856 16.6424C204.31 16.9554 203.861 17.3896 203.508 17.945C203.164 18.4903 202.907 19.1264 202.735 19.8535C202.574 20.5704 202.493 21.3378 202.493 22.1557Z" fill="#999999"/>
<path d="M18.1831 18.3166C25.9889 13.4127 36.5204 17.0448 32.1166 25.6265C27.7128 34.2031 -12.5521 18.3064 3.9495 26.2065C20.4511 34.1065 26.8127 50.1966 33.5659 34.9866C40.3191 19.7765 48.4555 -13.1361 25.5719 6.86585C2.68837 26.8678 8.43977 24.4311 18.1831 18.3166Z" fill="#999999"/>
</svg>
