<svg width="157" height="42" viewBox="0 0 157 42" fill="none" xmlns="http://www.w3.org/2000/svg">
<path d="M65.3484 30.4615H60.7439L60.7741 28.0836H65.3484C66.9236 28.0836 68.2363 27.7554 69.2864 27.099C70.3366 26.4326 71.1242 25.5036 71.6493 24.3121C72.1845 23.1105 72.4521 21.7069 72.4521 20.1014V18.7533C72.4521 17.4911 72.3006 16.3703 71.9977 15.3908C71.6947 14.4013 71.2504 13.5682 70.6648 12.8917C70.0791 12.205 69.3622 11.685 68.514 11.3316C67.6759 10.9782 66.7115 10.8015 65.621 10.8015H60.653V8.40833H65.621C67.065 8.40833 68.3827 8.65067 69.5742 9.13536C70.7657 9.60995 71.7907 10.3016 72.649 11.2104C73.5174 12.1091 74.1838 13.1997 74.6483 14.4821C75.1128 15.7544 75.345 17.1882 75.345 18.7836V20.1014C75.345 21.6968 75.1128 23.1357 74.6483 24.4181C74.1838 25.6904 73.5123 26.7759 72.6338 27.6746C71.7654 28.5733 70.7153 29.265 69.4833 29.7497C68.2615 30.2243 66.8832 30.4615 65.3484 30.4615ZM62.3039 8.40833V30.4615H59.3807V8.40833H62.3039ZM82.1155 16.648V30.4615H79.3134V14.0731H82.0398L82.1155 16.648ZM87.235 13.9822L87.2198 16.5874C86.9876 16.5369 86.7654 16.5066 86.5534 16.4965C86.3514 16.4763 86.1192 16.4662 85.8567 16.4662C85.2104 16.4662 84.6399 16.5672 84.1451 16.7692C83.6503 16.9711 83.2313 17.2538 82.888 17.6174C82.5446 17.9809 82.272 18.4151 82.07 18.92C81.8782 19.4147 81.752 19.96 81.6914 20.5558L80.9038 21.0102C80.9038 20.0206 80.9997 19.0916 81.1915 18.2232C81.3935 17.3548 81.7015 16.5874 82.1155 15.921C82.5295 15.2444 83.0546 14.7193 83.6907 14.3457C84.337 13.962 85.1044 13.7702 85.993 13.7702C86.1949 13.7702 86.4272 13.7954 86.6897 13.8459C86.9522 13.8863 87.134 13.9317 87.235 13.9822ZM88.7799 22.4491V22.1007C88.7799 20.9193 88.9516 19.8237 89.2949 18.8139C89.6382 17.7941 90.133 16.9105 90.7792 16.1633C91.4255 15.406 92.2081 14.8203 93.1269 14.4063C94.0458 13.9822 95.0758 13.7702 96.2168 13.7702C97.3679 13.7702 98.403 13.9822 99.3218 14.4063C100.251 14.8203 101.038 15.406 101.685 16.1633C102.341 16.9105 102.841 17.7941 103.184 18.8139C103.528 19.8237 103.699 20.9193 103.699 22.1007V22.4491C103.699 23.6305 103.528 24.7261 103.184 25.7359C102.841 26.7456 102.341 27.6292 101.685 28.3865C101.038 29.1337 100.256 29.7194 99.337 30.1435C98.4282 30.5575 97.3982 30.7645 96.2471 30.7645C95.096 30.7645 94.061 30.5575 93.1421 30.1435C92.2232 29.7194 91.4356 29.1337 90.7792 28.3865C90.133 27.6292 89.6382 26.7456 89.2949 25.7359C88.9516 24.7261 88.7799 23.6305 88.7799 22.4491ZM91.582 22.1007V22.4491C91.582 23.267 91.6779 24.0395 91.8698 24.7665C92.0616 25.4834 92.3494 26.1196 92.7331 26.6749C93.1269 27.2303 93.6167 27.6696 94.2023 27.9927C94.788 28.3057 95.4696 28.4622 96.2471 28.4622C97.0145 28.4622 97.686 28.3057 98.2616 27.9927C98.8473 27.6696 99.3319 27.2303 99.7156 26.6749C100.099 26.1196 100.387 25.4834 100.579 24.7665C100.781 24.0395 100.882 23.267 100.882 22.4491V22.1007C100.882 21.2929 100.781 20.5305 100.579 19.8136C100.387 19.0866 100.094 18.4454 99.7005 17.89C99.3168 17.3245 98.8321 16.8802 98.2464 16.5571C97.6709 16.234 96.9943 16.0724 96.2168 16.0724C95.4494 16.0724 94.7729 16.234 94.1872 16.5571C93.6116 16.8802 93.1269 17.3245 92.7331 17.89C92.3494 18.4454 92.0616 19.0866 91.8698 19.8136C91.6779 20.5305 91.582 21.2929 91.582 22.1007ZM110.015 17.2236V36.7625H107.198V14.0731H109.773L110.015 17.2236ZM121.057 22.131V22.4491C121.057 23.6406 120.916 24.7463 120.633 25.7662C120.35 26.7759 119.936 27.6544 119.391 28.4016C118.856 29.1489 118.194 29.7295 117.407 30.1435C116.619 30.5575 115.715 30.7645 114.695 30.7645C113.655 30.7645 112.737 30.5928 111.939 30.2495C111.141 29.9062 110.465 29.4063 109.909 28.75C109.354 28.0937 108.91 27.306 108.576 26.3872C108.253 25.4683 108.031 24.4333 107.91 23.2821V21.5857C108.031 20.374 108.258 19.2885 108.591 18.3292C108.925 17.37 109.364 16.5521 109.909 15.8755C110.465 15.1889 111.136 14.6689 111.924 14.3154C112.711 13.9519 113.62 13.7702 114.65 13.7702C115.68 13.7702 116.594 13.9721 117.392 14.376C118.189 14.7698 118.861 15.3353 119.406 16.0724C119.951 16.8096 120.36 17.6931 120.633 18.7231C120.916 19.7429 121.057 20.8789 121.057 22.131ZM118.24 22.4491V22.131C118.24 21.3131 118.154 20.5457 117.982 19.8287C117.811 19.1017 117.543 18.4656 117.179 17.9203C116.826 17.3649 116.372 16.9307 115.816 16.6177C115.261 16.2946 114.6 16.133 113.832 16.133C113.125 16.133 112.509 16.2542 111.984 16.4965C111.469 16.7389 111.03 17.067 110.667 17.481C110.303 17.885 110.005 18.3494 109.773 18.8745C109.551 19.3895 109.384 19.9247 109.273 20.48V24.403C109.475 25.1098 109.758 25.7762 110.121 26.4023C110.485 27.0183 110.969 27.5181 111.575 27.9018C112.181 28.2754 112.944 28.4622 113.862 28.4622C114.62 28.4622 115.271 28.3057 115.816 27.9927C116.372 27.6696 116.826 27.2303 117.179 26.6749C117.543 26.1196 117.811 25.4834 117.982 24.7665C118.154 24.0395 118.24 23.267 118.24 22.4491ZM127.676 7.19661V30.4615H124.859V7.19661H127.676ZM138.975 30.7645C137.834 30.7645 136.799 30.5726 135.87 30.1889C134.951 29.7951 134.159 29.2448 133.492 28.5379C132.836 27.8311 132.331 26.993 131.978 26.0236C131.624 25.0543 131.447 23.994 131.447 22.8429V22.2067C131.447 20.8738 131.644 19.6874 132.038 18.6473C132.432 17.5972 132.967 16.7086 133.644 15.9815C134.32 15.2545 135.088 14.7042 135.946 14.3306C136.804 13.957 137.693 13.7702 138.612 13.7702C139.783 13.7702 140.793 13.9721 141.641 14.376C142.499 14.7799 143.201 15.3454 143.746 16.0724C144.292 16.7894 144.696 17.6376 144.958 18.617C145.221 19.5864 145.352 20.6467 145.352 21.7978V23.0549H133.114V20.7678H142.55V20.5558C142.509 19.8287 142.358 19.1219 142.095 18.4353C141.843 17.7486 141.439 17.1832 140.884 16.7389C140.328 16.2946 139.571 16.0724 138.612 16.0724C137.976 16.0724 137.39 16.2087 136.855 16.4814C136.32 16.7439 135.86 17.1377 135.476 17.6628C135.093 18.1879 134.795 18.8291 134.583 19.5864C134.371 20.3437 134.265 21.2172 134.265 22.2067V22.8429C134.265 23.6204 134.371 24.3525 134.583 25.0391C134.805 25.7157 135.123 26.3114 135.537 26.8264C135.961 27.3414 136.471 27.7453 137.067 28.0381C137.673 28.3309 138.359 28.4774 139.127 28.4774C140.116 28.4774 140.954 28.2754 141.641 27.8715C142.328 27.4676 142.928 26.9274 143.443 26.2508L145.14 27.5989C144.786 28.134 144.337 28.644 143.792 29.1287C143.247 29.6133 142.575 30.0072 141.777 30.3101C140.99 30.613 140.056 30.7645 138.975 30.7645ZM155.485 14.0731V16.2239H146.624V14.0731H155.485ZM149.623 10.0896H152.425V26.4023C152.425 26.9577 152.511 27.3767 152.683 27.6595C152.854 27.9422 153.077 28.129 153.349 28.2199C153.622 28.3108 153.915 28.3562 154.228 28.3562C154.46 28.3562 154.702 28.336 154.955 28.2956C155.217 28.2451 155.414 28.2047 155.545 28.1744L155.561 30.4615C155.338 30.5322 155.046 30.5979 154.682 30.6585C154.329 30.7291 153.9 30.7645 153.395 30.7645C152.708 30.7645 152.077 30.6282 151.501 30.3555C150.926 30.0829 150.466 29.6285 150.123 28.9923C149.79 28.3461 149.623 27.4777 149.623 26.3872V10.0896Z" fill="#999999"/>
<path d="M4.27002 12.8337C15.8186 -7.21399 36.3934 -1.02316 29.9301 19.752C23.4668 40.5271 42.4499 20.6829 41.5346 32.7186C40.6193 44.7544 4.69718 43.8286 16.2407 31.7826C27.7791 19.7367 29.1063 15.601 17.2374 23.3535C5.36843 31.1061 -4.5732 28.1811 4.27002 12.8337Z" fill="#999999"/>
<path d="M4.27002 12.8337C15.8186 -7.21399 36.3934 -1.02316 29.9301 19.752C23.4668 40.5271 42.4499 20.6829 41.5346 32.7186C40.6193 44.7544 4.69718 43.8286 16.2407 31.7826C27.7791 19.7367 29.1063 15.601 17.2374 23.3535C5.36843 31.1061 -4.5732 28.1811 4.27002 12.8337Z" fill="#999999"/>
</svg>
