<svg width="196" height="42" viewBox="0 0 196 42" fill="none" xmlns="http://www.w3.org/2000/svg">
<path d="M76.0477 18.7391V20.1325C76.0477 21.7885 75.8407 23.2729 75.4267 24.5856C75.0127 25.8983 74.4169 27.0141 73.6394 27.9329C72.8619 28.8518 71.9278 29.5536 70.8373 30.0383C69.7568 30.523 68.5451 30.7653 67.2021 30.7653C65.8996 30.7653 64.703 30.523 63.6124 30.0383C62.532 29.5536 61.5929 28.8518 60.7952 27.9329C60.0076 27.0141 59.3967 25.8983 58.9625 24.5856C58.5283 23.2729 58.3112 21.7885 58.3112 20.1325V18.7391C58.3112 17.083 58.5232 15.6037 58.9473 14.3011C59.3815 12.9885 59.9924 11.8727 60.7801 10.9538C61.5677 10.0248 62.5017 9.31797 63.5821 8.83328C64.6727 8.3486 65.8693 8.10625 67.1719 8.10625C68.5148 8.10625 69.7266 8.3486 70.807 8.83328C71.8975 9.31797 72.8316 10.0248 73.6091 10.9538C74.3967 11.8727 74.9975 12.9885 75.4115 14.3011C75.8356 15.6037 76.0477 17.083 76.0477 18.7391ZM73.1547 20.1325V18.7088C73.1547 17.3961 73.0184 16.2348 72.7457 15.2251C72.4832 14.2153 72.0944 13.3671 71.5795 12.6805C71.0645 11.9938 70.4334 11.4738 69.6862 11.1204C68.949 10.767 68.1109 10.5903 67.1719 10.5903C66.2631 10.5903 65.4401 10.767 64.703 11.1204C63.976 11.4738 63.3499 11.9938 62.8248 12.6805C62.3098 13.3671 61.911 14.2153 61.6283 15.2251C61.3455 16.2348 61.2042 17.3961 61.2042 18.7088V20.1325C61.2042 21.4553 61.3455 22.6266 61.6283 23.6465C61.911 24.6563 62.3149 25.5095 62.84 26.2063C63.3751 26.8929 64.0062 27.4129 64.7333 27.7663C65.4704 28.1198 66.2934 28.2965 67.2021 28.2965C68.1513 28.2965 68.9945 28.1198 69.7316 27.7663C70.4687 27.4129 71.0897 26.8929 71.5946 26.2063C72.1096 25.5095 72.4984 24.6563 72.7609 23.6465C73.0234 22.6266 73.1547 21.4553 73.1547 20.1325ZM82.803 17.2244V36.7633H79.9857V14.074H82.5606L82.803 17.2244ZM93.8447 22.1319V22.4499C93.8447 23.6415 93.7034 24.7471 93.4206 25.767C93.1379 26.7768 92.7239 27.6553 92.1786 28.4025C91.6435 29.1497 90.9821 29.7303 90.1944 30.1443C89.4068 30.5583 88.5031 30.7653 87.4832 30.7653C86.4432 30.7653 85.5243 30.5937 84.7266 30.2504C83.9289 29.907 83.2523 29.4072 82.697 28.7509C82.1416 28.0945 81.6973 27.3069 81.3641 26.388C81.0409 25.4691 80.8188 24.4341 80.6976 23.283V21.5866C80.8188 20.3749 81.046 19.2894 81.3792 18.3301C81.7124 17.3708 82.1517 16.5529 82.697 15.8764C83.2523 15.1897 83.9238 14.6697 84.7114 14.3163C85.499 13.9528 86.4078 13.771 87.4378 13.771C88.4678 13.771 89.3816 13.973 90.1793 14.3769C90.977 14.7707 91.6485 15.3362 92.1938 16.0733C92.739 16.8104 93.148 17.694 93.4206 18.7239C93.7034 19.7438 93.8447 20.8798 93.8447 22.1319ZM91.0275 22.4499V22.1319C91.0275 21.314 90.9417 20.5465 90.77 19.8296C90.5984 19.1026 90.3308 18.4664 89.9672 17.9211C89.6138 17.3658 89.1594 16.9316 88.6041 16.6186C88.0487 16.2954 87.3873 16.1339 86.6199 16.1339C85.9131 16.1339 85.2971 16.255 84.772 16.4974C84.257 16.7397 83.8178 17.0679 83.4543 17.4819C83.0908 17.8858 82.7929 18.3503 82.5606 18.8754C82.3385 19.3904 82.1719 19.9255 82.0608 20.4809V24.4038C82.2628 25.1107 82.5455 25.7771 82.909 26.4032C83.2725 27.0191 83.7572 27.5189 84.3631 27.9027C84.9689 28.2763 85.7313 28.4631 86.6502 28.4631C87.4075 28.4631 88.0588 28.3066 88.6041 27.9935C89.1594 27.6704 89.6138 27.2312 89.9672 26.6758C90.3308 26.1204 90.5984 25.4843 90.77 24.7673C90.9417 24.0403 91.0275 23.2678 91.0275 22.4499ZM104.22 30.7653C103.079 30.7653 102.044 30.5735 101.115 30.1898C100.196 29.796 99.4035 29.2456 98.737 28.5388C98.0807 27.832 97.5758 26.9939 97.2224 26.0245C96.869 25.0551 96.6923 23.9949 96.6923 22.8437V22.2076C96.6923 20.8747 96.8892 19.6882 97.283 18.6482C97.6768 17.598 98.212 16.7094 98.8885 15.9824C99.565 15.2554 100.332 14.7051 101.191 14.3314C102.049 13.9578 102.938 13.771 103.857 13.771C105.028 13.771 106.038 13.973 106.886 14.3769C107.744 14.7808 108.446 15.3463 108.991 16.0733C109.536 16.7902 109.94 17.6384 110.203 18.6179C110.465 19.5873 110.597 20.6475 110.597 21.7986V23.0558H98.3584V20.7687H107.795V20.5566C107.754 19.8296 107.603 19.1228 107.34 18.4361C107.088 17.7495 106.684 17.184 106.129 16.7397C105.573 16.2954 104.816 16.0733 103.857 16.0733C103.22 16.0733 102.635 16.2096 102.1 16.4822C101.564 16.7448 101.105 17.1386 100.721 17.6637C100.338 18.1887 100.04 18.8299 99.8276 19.5873C99.6155 20.3446 99.5095 21.218 99.5095 22.2076V22.8437C99.5095 23.6213 99.6155 24.3533 99.8276 25.04C100.05 25.7165 100.368 26.3123 100.782 26.8273C101.206 27.3422 101.716 27.7461 102.312 28.039C102.917 28.3318 103.604 28.4782 104.372 28.4782C105.361 28.4782 106.199 28.2763 106.886 27.8724C107.572 27.4685 108.173 26.9282 108.688 26.2517L110.385 27.5997C110.031 28.1349 109.582 28.6448 109.037 29.1295C108.491 29.6142 107.82 30.008 107.022 30.3109C106.235 30.6139 105.301 30.7653 104.22 30.7653ZM116.67 17.5728V30.4624H113.868V14.074H116.519L116.67 17.5728ZM116.004 21.6472L114.838 21.6017C114.848 20.4809 115.014 19.4459 115.338 18.4967C115.661 17.5374 116.115 16.7044 116.701 15.9975C117.286 15.2907 117.983 14.7454 118.791 14.3617C119.609 13.9679 120.513 13.771 121.502 13.771C122.31 13.771 123.037 13.8821 123.683 14.1042C124.329 14.3163 124.88 14.6596 125.334 15.1342C125.799 15.6088 126.152 16.2247 126.394 16.9821C126.637 17.7293 126.758 18.6431 126.758 19.7236V30.4624H123.941V19.6933C123.941 18.835 123.815 18.1483 123.562 17.6334C123.31 17.1083 122.941 16.7296 122.456 16.4974C121.972 16.255 121.376 16.1339 120.669 16.1339C119.972 16.1339 119.336 16.2803 118.761 16.5731C118.195 16.8659 117.705 17.2699 117.291 17.7848C116.888 18.2998 116.569 18.8905 116.337 19.557C116.115 20.2133 116.004 20.91 116.004 21.6472ZM137.406 30.4624H132.801L132.832 28.0844H137.406C138.981 28.0844 140.294 27.7562 141.344 27.0999C142.394 26.4334 143.182 25.5045 143.707 24.3129C144.242 23.1113 144.51 21.7078 144.51 20.1022V18.7542C144.51 17.492 144.358 16.3712 144.055 15.3917C143.752 14.4021 143.308 13.5691 142.722 12.8925C142.137 12.2059 141.42 11.6859 140.572 11.3324C139.733 10.979 138.769 10.8023 137.679 10.8023H132.711V8.40918H137.679C139.123 8.40918 140.44 8.65152 141.632 9.13621C142.823 9.6108 143.848 10.3025 144.706 11.2113C145.575 12.11 146.241 13.2005 146.706 14.4829C147.17 15.7552 147.403 17.1891 147.403 18.7845V20.1022C147.403 21.6977 147.17 23.1366 146.706 24.419C146.241 25.6913 145.57 26.7768 144.691 27.6755C143.823 28.5741 142.773 29.2658 141.541 29.7505C140.319 30.2251 138.941 30.4624 137.406 30.4624ZM134.361 8.40918V30.4624H131.438V8.40918H134.361ZM150.629 22.4499V22.1016C150.629 20.9201 150.8 19.8246 151.144 18.8148C151.487 17.7949 151.982 16.9114 152.628 16.1642C153.274 15.4068 154.057 14.8212 154.976 14.4072C155.895 13.9831 156.925 13.771 158.066 13.771C159.217 13.771 160.252 13.9831 161.171 14.4072C162.1 14.8212 162.887 15.4068 163.534 16.1642C164.19 16.9114 164.69 17.7949 165.033 18.8148C165.376 19.8246 165.548 20.9201 165.548 22.1016V22.4499C165.548 23.6314 165.376 24.7269 165.033 25.7367C164.69 26.7465 164.19 27.63 163.534 28.3873C162.887 29.1346 162.105 29.7202 161.186 30.1443C160.277 30.5583 159.247 30.7653 158.096 30.7653C156.945 30.7653 155.91 30.5583 154.991 30.1443C154.072 29.7202 153.284 29.1346 152.628 28.3873C151.982 27.63 151.487 26.7465 151.144 25.7367C150.8 24.7269 150.629 23.6314 150.629 22.4499ZM153.431 22.1016V22.4499C153.431 23.2678 153.527 24.0403 153.719 24.7673C153.91 25.4843 154.198 26.1204 154.582 26.6758C154.976 27.2312 155.466 27.6704 156.051 27.9935C156.637 28.3066 157.318 28.4631 158.096 28.4631C158.863 28.4631 159.535 28.3066 160.11 27.9935C160.696 27.6704 161.181 27.2312 161.564 26.6758C161.948 26.1204 162.236 25.4843 162.428 24.7673C162.63 24.0403 162.731 23.2678 162.731 22.4499V22.1016C162.731 21.2938 162.63 20.5314 162.428 19.8145C162.236 19.0874 161.943 18.4462 161.549 17.8909C161.166 17.3254 160.681 16.8811 160.095 16.558C159.52 16.2348 158.843 16.0733 158.066 16.0733C157.298 16.0733 156.622 16.2348 156.036 16.558C155.46 16.8811 154.976 17.3254 154.582 17.8909C154.198 18.4462 153.91 19.0874 153.719 19.8145C153.527 20.5314 153.431 21.2938 153.431 22.1016ZM168.32 22.4499V22.1016C168.32 20.9201 168.491 19.8246 168.835 18.8148C169.178 17.7949 169.673 16.9114 170.319 16.1642C170.965 15.4068 171.748 14.8212 172.667 14.4072C173.586 13.9831 174.616 13.771 175.757 13.771C176.908 13.771 177.943 13.9831 178.862 14.4072C179.791 14.8212 180.578 15.4068 181.225 16.1642C181.881 16.9114 182.381 17.7949 182.724 18.8148C183.067 19.8246 183.239 20.9201 183.239 22.1016V22.4499C183.239 23.6314 183.067 24.7269 182.724 25.7367C182.381 26.7465 181.881 27.63 181.225 28.3873C180.578 29.1346 179.796 29.7202 178.877 30.1443C177.968 30.5583 176.938 30.7653 175.787 30.7653C174.636 30.7653 173.601 30.5583 172.682 30.1443C171.763 29.7202 170.975 29.1346 170.319 28.3873C169.673 27.63 169.178 26.7465 168.835 25.7367C168.491 24.7269 168.32 23.6314 168.32 22.4499ZM171.122 22.1016V22.4499C171.122 23.2678 171.218 24.0403 171.41 24.7673C171.602 25.4843 171.889 26.1204 172.273 26.6758C172.667 27.2312 173.157 27.6704 173.742 27.9935C174.328 28.3066 175.009 28.4631 175.787 28.4631C176.554 28.4631 177.226 28.3066 177.801 27.9935C178.387 27.6704 178.872 27.2312 179.256 26.6758C179.639 26.1204 179.927 25.4843 180.119 24.7673C180.321 24.0403 180.422 23.2678 180.422 22.4499V22.1016C180.422 21.2938 180.321 20.5314 180.119 19.8145C179.927 19.0874 179.634 18.4462 179.24 17.8909C178.857 17.3254 178.372 16.8811 177.786 16.558C177.211 16.2348 176.534 16.0733 175.757 16.0733C174.989 16.0733 174.313 16.2348 173.727 16.558C173.152 16.8811 172.667 17.3254 172.273 17.8909C171.889 18.4462 171.602 19.0874 171.41 19.8145C171.218 20.5314 171.122 21.2938 171.122 22.1016ZM189.555 16.6488V30.4624H186.753V14.074H189.479L189.555 16.6488ZM194.675 13.9831L194.659 16.5883C194.427 16.5378 194.205 16.5075 193.993 16.4974C193.791 16.4772 193.559 16.4671 193.296 16.4671C192.65 16.4671 192.08 16.5681 191.585 16.77C191.09 16.972 190.671 17.2547 190.328 17.6182C189.984 17.9817 189.712 18.4159 189.51 18.9208C189.318 19.4156 189.192 19.9609 189.131 20.5566L188.343 21.011C188.343 20.0215 188.439 19.0925 188.631 18.2241C188.833 17.3557 189.141 16.5883 189.555 15.9218C189.969 15.2453 190.494 14.7202 191.13 14.3466C191.777 13.9629 192.544 13.771 193.433 13.771C193.635 13.771 193.867 13.7963 194.129 13.8468C194.392 13.8871 194.574 13.9326 194.675 13.9831Z" fill="#999999"/>
<path d="M25.9972 5.68242L41.2529 0.595459L25.9972 20.9433L41.2529 41.2911L25.9972 36.2042L41.2529 0.595459V41.2911" fill="#999999"/>
<path d="M25.9972 5.6825H0.571075L25.9972 20.9434L0.571075 36.2043H25.9972L0.571075 5.6825V36.2043" fill="#999999"/>
</svg>
