<svg width="134" height="47" viewBox="0 0 134 47" fill="none" xmlns="http://www.w3.org/2000/svg">
<path d="M71.6447 43.7979V19.617L71.9446 15.718H75.1312V43.7979H71.6447ZM58.0171 26.084V25.6903C58.0171 24.1407 58.1983 22.7349 58.5607 21.4727C58.9231 20.1981 59.4542 19.1046 60.1541 18.1924C60.8539 17.2801 61.6974 16.5803 62.6846 16.0929C63.6843 15.5931 64.8215 15.3431 66.0962 15.3431C67.3708 15.3431 68.4893 15.5681 69.4515 16.0179C70.4263 16.4553 71.251 17.0989 71.9258 17.9487C72.6132 18.7859 73.1568 19.7982 73.5567 20.9853C73.9565 22.1725 74.2315 23.5159 74.3814 25.0155V26.74C74.244 28.2271 73.9753 29.5643 73.5754 30.7514C73.1755 31.9386 72.6319 32.9508 71.9446 33.7881C71.2698 34.6254 70.4388 35.2689 69.4515 35.7188C68.4768 36.1562 67.3458 36.3749 66.0587 36.3749C64.809 36.3749 63.6843 36.1187 62.6846 35.6064C61.6974 35.094 60.8539 34.3754 60.1541 33.4507C59.4667 32.5259 58.9356 31.4387 58.5607 30.1891C58.1983 28.9269 58.0171 27.5586 58.0171 26.084ZM61.5037 25.6903V26.084C61.5037 27.0962 61.6099 28.0522 61.8224 28.9519C62.0348 29.8392 62.3597 30.6265 62.7971 31.3138C63.247 32.0011 63.8093 32.5447 64.4841 32.9446C65.1714 33.332 65.9837 33.5257 66.921 33.5257C68.0706 33.5257 69.0266 33.2757 69.7889 32.7759C70.5637 32.276 71.1823 31.6199 71.6447 30.8077C72.107 29.9829 72.4632 29.1019 72.7131 28.1646V23.6471C72.5757 22.9598 72.357 22.2912 72.0571 21.6414C71.7696 20.9916 71.3947 20.4105 70.9324 19.8981C70.47 19.3733 69.9076 18.9609 69.2453 18.661C68.5955 18.3486 67.8332 18.1924 66.9585 18.1924C66.0087 18.1924 65.1902 18.3923 64.5029 18.7922C63.8156 19.1921 63.247 19.7419 62.7971 20.4417C62.3597 21.1291 62.0348 21.9226 61.8224 22.8223C61.6099 23.7221 61.5037 24.6781 61.5037 25.6903ZM84.1663 18.9047V36H80.6985V15.718H84.0725L84.1663 18.9047ZM90.502 15.6056L90.4833 18.8297C90.1959 18.7672 89.9209 18.7297 89.6585 18.7172C89.4086 18.6922 89.1212 18.6797 88.7962 18.6797C87.9965 18.6797 87.2904 18.8047 86.6781 19.0546C86.0657 19.3046 85.5471 19.6545 85.1222 20.1043C84.6974 20.5542 84.36 21.0916 84.11 21.7164C83.8726 22.3287 83.7164 23.0035 83.6414 23.7408L82.6667 24.3032C82.6667 23.0785 82.7854 21.9288 83.0228 20.8541C83.2728 19.7794 83.6539 18.8297 84.1663 18.0049C84.6786 17.1676 85.3284 16.5178 86.1157 16.0554C86.9155 15.5806 87.8653 15.3431 88.965 15.3431C89.2149 15.3431 89.5023 15.3744 89.8272 15.4369C90.1521 15.4868 90.3771 15.5431 90.502 15.6056ZM101.449 33.5257C102.274 33.5257 103.036 33.357 103.736 33.0196C104.436 32.6822 105.011 32.2198 105.46 31.6324C105.91 31.0326 106.167 30.3515 106.229 29.5892H109.528C109.466 30.7889 109.059 31.9074 108.31 32.9446C107.572 33.9693 106.604 34.8003 105.404 35.4377C104.205 36.0625 102.886 36.3749 101.449 36.3749C99.9245 36.3749 98.5936 36.1062 97.4564 35.5689C96.3317 35.0315 95.3945 34.2942 94.6447 33.357C93.9074 32.4197 93.3513 31.345 92.9764 30.1328C92.614 28.9082 92.4328 27.6148 92.4328 26.2527V25.4654C92.4328 24.1032 92.614 22.8161 92.9764 21.6039C93.3513 20.3793 93.9074 19.2983 94.6447 18.3611C95.3945 17.4238 96.3317 16.6865 97.4564 16.1492C98.5936 15.6118 99.9245 15.3431 101.449 15.3431C103.036 15.3431 104.423 15.668 105.61 16.3179C106.798 16.9552 107.729 17.83 108.403 18.9422C109.091 20.0419 109.466 21.2915 109.528 22.6911H106.229C106.167 21.8539 105.929 21.0978 105.517 20.423C105.117 19.7482 104.567 19.2108 103.867 18.8109C103.18 18.3985 102.374 18.1924 101.449 18.1924C100.387 18.1924 99.4933 18.4048 98.7685 18.8297C98.0562 19.2421 97.4876 19.8044 97.0627 20.5167C96.6504 21.2165 96.3504 21.9976 96.163 22.8598C95.988 23.7096 95.9006 24.5781 95.9006 25.4654V26.2527C95.9006 27.1399 95.988 28.0147 96.163 28.8769C96.3379 29.7392 96.6316 30.5202 97.044 31.2201C97.4689 31.9199 98.0375 32.4822 98.7498 32.9071C99.4746 33.3195 100.374 33.5257 101.449 33.5257ZM112.509 26.084V25.6528C112.509 24.1907 112.721 22.8348 113.146 21.5852C113.571 20.323 114.183 19.2296 114.983 18.3048C115.783 17.3676 116.751 16.6428 117.888 16.1304C119.026 15.6056 120.3 15.3431 121.712 15.3431C123.137 15.3431 124.418 15.6056 125.555 16.1304C126.705 16.6428 127.679 17.3676 128.479 18.3048C129.291 19.2296 129.91 20.323 130.335 21.5852C130.76 22.8348 130.972 24.1907 130.972 25.6528V26.084C130.972 27.5461 130.76 28.9019 130.335 30.1516C129.91 31.4013 129.291 32.4947 128.479 33.432C127.679 34.3567 126.711 35.0815 125.574 35.6064C124.449 36.1187 123.174 36.3749 121.75 36.3749C120.325 36.3749 119.044 36.1187 117.907 35.6064C116.77 35.0815 115.795 34.3567 114.983 33.432C114.183 32.4947 113.571 31.4013 113.146 30.1516C112.721 28.9019 112.509 27.5461 112.509 26.084ZM115.976 25.6528V26.084C115.976 27.0962 116.095 28.0522 116.332 28.9519C116.57 29.8392 116.926 30.6265 117.401 31.3138C117.888 32.0011 118.494 32.5447 119.219 32.9446C119.944 33.332 120.788 33.5257 121.75 33.5257C122.7 33.5257 123.531 33.332 124.243 32.9446C124.968 32.5447 125.567 32.0011 126.042 31.3138C126.517 30.6265 126.873 29.8392 127.111 28.9519C127.361 28.0522 127.486 27.0962 127.486 26.084V25.6528C127.486 24.6531 127.361 23.7096 127.111 22.8223C126.873 21.9226 126.511 21.1291 126.024 20.4417C125.549 19.7419 124.949 19.1921 124.224 18.7922C123.512 18.3923 122.675 18.1924 121.712 18.1924C120.763 18.1924 119.925 18.3923 119.2 18.7922C118.488 19.1921 117.888 19.7419 117.401 20.4417C116.926 21.1291 116.57 21.9226 116.332 22.8223C116.095 23.7096 115.976 24.6531 115.976 25.6528Z" fill="#999999"/>
<path d="M15.5544 5.51587H0.298687V20.7768H15.5544V5.51587Z" fill="#999999"/>
<path d="M25.7248 5.51587H20.6396V15.6898H25.7248V5.51587Z" fill="#999999"/>
<path d="M40.9805 5.51587H30.8101V20.7768H40.9805V5.51587Z" fill="#999999"/>
<path d="M30.8101 20.7766H15.5544V46.2114H30.8101V20.7766Z" fill="#999999"/>
<path d="M10.4692 36.0374H0.298702V46.2113H10.4692V36.0374Z" fill="#999999"/>
<path d="M10.4692 25.8636H0.298717V30.9505H10.4692V25.8636Z" fill="#999999"/>
<path opacity="0.8902" d="M40.9806 36.0374H35.8953V46.2113H40.9806V36.0374Z" fill="#999999"/>
<path d="M40.9806 25.8636H35.8953V30.9505H40.9806V25.8636Z" fill="#999999"/>
</svg>
