<svg width="72" height="72" fill="none" xmlns="http://www.w3.org/2000/svg"><rect x="2" y="10" width="60" height="60" rx="10" stroke="#111" stroke-width="4"/><path fill-rule="evenodd" clip-rule="evenodd" d="M23.3 27.73c-2.377 2.42-4.34 6.71-5.392 10.056a2 2 0 0 1-3.816-1.201c1.117-3.548 3.313-8.563 6.354-11.658 1.532-1.56 3.507-2.862 5.864-2.925 2.422-.064 4.684 1.19 6.724 3.529 1.24 1.422 2.082 2.83 2.372 4.26.31 1.527-.05 2.885-.832 4.011-.728 1.049-1.78 1.84-2.81 2.47-1.044.637-2.236 1.207-3.364 1.736l-.258.121c-2.284 1.07-4.24 1.987-5.488 3.17-.6.567-.928 1.106-1.065 1.65-.133.53-.132 1.268.282 2.331.828 2.13 2.902 4.169 5.804 5.776 2.867 1.587 6.302 2.616 9.464 2.878 3.228.268 5.807-.289 7.284-1.429a3.818 3.818 0 0 0 1.411-2.11c.242-.912.256-2.168-.208-3.86-.87-3.167-2.79-4.677-5.003-5.3-2.341-.66-5.127-.34-7.423.522-1.136.426-2.063.953-2.696 1.47a3.615 3.615 0 0 0-.659.671c-.054.077-.09.138-.112.183.033.03.082.07.154.12.464.328 1.49.756 3.434 1.042a2 2 0 1 1-.583 3.957c-2.188-.322-3.94-.872-5.158-1.731-1.322-.933-2.114-2.342-1.822-3.993.249-1.41 1.226-2.539 2.217-3.348 1.042-.85 2.372-1.573 3.82-2.116 2.869-1.077 6.547-1.575 9.911-.627 3.492.983 6.518 3.502 7.777 8.09.6 2.185.685 4.18.218 5.944a7.815 7.815 0 0 1-2.834 4.253c-2.624 2.024-6.4 2.551-10.058 2.248-3.726-.308-7.71-1.503-11.072-3.365-3.328-1.843-6.294-4.481-7.594-7.825-.651-1.674-.806-3.265-.434-4.753.37-1.477 1.209-2.649 2.194-3.582 1.74-1.648 4.258-2.823 6.324-3.787l.475-.222c1.142-.536 2.145-1.02 2.977-1.528.845-.516 1.348-.96 1.61-1.337.208-.3.273-.557.196-.935-.096-.476-.452-1.263-1.466-2.426-1.566-1.797-2.776-2.181-3.603-2.16-.891.024-1.94.532-3.117 1.73Zm6.37 16.282c.002 0 .007.006.013.019-.01-.013-.013-.02-.012-.019Z" fill="#111"/><circle cx="62" cy="10" r="10" fill="#39FFA0"/></svg>