<svg width="36" height="36" viewBox="0 0 36 36" fill="none" xmlns="http://www.w3.org/2000/svg">
<path fill-rule="evenodd" clip-rule="evenodd" d="M9.29989 5.72981C6.92316 8.14916 4.96148 12.4408 3.90822 15.7862C3.5765 16.8398 2.45349 17.4249 1.39991 17.0932C0.346325 16.7615 -0.238863 15.6385 0.0928548 14.5849C1.21 11.0367 3.40549 6.02211 6.44644 2.92663C7.9787 1.36689 9.95366 0.0648794 12.3107 0.00235343C14.7327 -0.0618963 16.9949 1.19127 19.0348 3.53089C20.2747 4.95302 21.1162 6.36056 21.4063 7.79078C21.716 9.31834 21.3568 10.6765 20.5748 11.8024C19.8467 12.851 18.7939 13.6429 17.7641 14.2717C16.7202 14.9092 15.5281 15.4792 14.401 16.0079C14.3143 16.0485 14.2281 16.0889 14.1424 16.1291C11.858 17.1997 9.90268 18.116 8.65479 19.2984C8.05532 19.8665 7.72603 20.4052 7.58999 20.9485C7.45688 21.48 7.45799 22.217 7.87148 23.2804C8.69994 25.4109 10.7738 27.4488 13.6755 29.0557C16.5424 30.6434 19.9779 31.6724 23.1393 31.9342C26.368 32.2015 28.9463 31.6451 30.4235 30.505C31.1208 29.9669 31.5999 29.2836 31.8348 28.3959C32.0764 27.4827 32.091 26.2275 31.6263 24.5346C30.7572 21.3681 28.8363 19.8579 26.6231 19.2348C24.2822 18.5758 21.4963 18.8954 19.2006 19.7571C18.0648 20.1834 17.138 20.7103 16.5041 21.2275C16.189 21.4847 15.9768 21.7146 15.8459 21.8982C15.791 21.9752 15.756 22.0362 15.7338 22.0809C15.7669 22.1107 15.8159 22.1504 15.8872 22.2007C16.3516 22.5285 17.3771 22.9569 19.3212 23.2431C20.414 23.4039 21.1695 24.4202 21.0086 25.513C20.8477 26.6058 19.8314 27.3613 18.7387 27.2004C16.5506 26.8783 14.7978 26.3278 13.5807 25.4688C12.259 24.536 11.4667 23.1268 11.7583 21.4762C12.0074 20.0658 12.9842 18.9371 13.9753 18.1284C15.0171 17.2782 16.3481 16.5553 17.7949 16.0122C20.6643 14.9352 24.3427 14.4374 27.707 15.3845C31.1989 16.3676 34.2241 18.8871 35.4836 23.4758C36.0833 25.6606 36.1683 27.6557 35.7017 29.4191C35.2283 31.2079 34.2205 32.6274 32.8674 33.6717C30.2437 35.6965 26.4673 36.2234 22.8092 35.9205C19.0837 35.6121 15.1001 34.4171 11.7376 32.5549C8.40967 30.7119 5.44363 28.0738 4.14341 24.7301C3.49257 23.0563 3.33716 21.4648 3.70981 19.9768C4.07952 18.5004 4.91826 17.3285 5.90355 16.3949C7.64275 14.7469 10.1611 13.5722 12.2278 12.6082C12.389 12.533 12.5474 12.4591 12.7025 12.3864C13.8448 11.8506 14.848 11.3656 15.6794 10.8579C16.5249 10.3416 17.0275 9.89793 17.2893 9.52088C17.4974 9.22124 17.5627 8.96371 17.4861 8.58573C17.3897 8.1104 17.0338 7.32253 16.0198 6.15958C14.4535 4.36307 13.2431 3.97903 12.4168 4.00095C11.5255 4.02459 10.4765 4.53213 9.29989 5.72981ZM15.6714 22.012C15.6726 22.0121 15.6779 22.0184 15.6837 22.0306C15.6732 22.018 15.6702 22.0119 15.6714 22.012Z" fill="#111111"/>
</svg>
